<svg t="1722959897024" class="icon" viewBox="0 0 1068 1024" version="1.1" xmlns="http://www.w3.org/2000/svg" p-id="6107" width="1em" height="1em"><path d="M821.24856 1023.999532a70.214094 70.214094 0 0 1-32.766577-7.957597l-234.046978-122.172523a46.809396 46.809396 0 0 0-43.532738 0l-53.362711 28.085637a46.809396 46.809396 0 1 1-43.532738-82.85263l53.362711-28.085638a140.428187 140.428187 0 0 1 130.598214 0l190.046146 100.172107-36.511328-211.578468a140.428187 140.428187 0 0 1 40.25608-124.044899L947.633929 422.966891l-212.514657-30.894201a140.428187 140.428187 0 0 1-105.789234-76.767409l-93.618792-192.386616-93.618791 192.386616a140.428187 140.428187 0 0 1-108.129704 78.639785L121.448094 422.966891l154.002912 149.790066a140.428187 140.428187 0 0 1 40.256081 124.512993l-44.468926 258.387864a46.809396 46.809396 0 0 1-93.618792-15.915194l44.468926-258.387865a46.809396 46.809396 0 0 0-13.574725-41.660362l-187.237582-183.024737a70.214094 70.214094 0 0 1 38.851798-119.832053l259.324052-37.915611a46.809396 46.809396 0 0 0 35.107047-25.745167l116.087301-234.046979a70.214094 70.214094 0 0 1 125.917275 0l116.087301 234.046979a46.809396 46.809396 0 0 0 35.107047 25.745167l259.324052 37.915611a70.214094 70.214094 0 0 1 38.851799 119.832053l-187.237583 183.024737a46.809396 46.809396 0 0 0-13.574725 41.192268l44.93702 260.728334a70.214094 70.214094 0 0 1-69.277906 82.384537z" fill="currentColor" p-id="6108"></path></svg>