<svg viewBox="0 0 917 534" version="1.1" xmlns="http://www.w3.org/2000/svg" xmlns:xlink="http://www.w3.org/1999/xlink"> <title>Mackbook Mockup - Designed for Webpixels in Sketch</title> <defs> <path d="M202.501322,490.883185 C129.080842,490.883185 120.637846,491.125644 10.269156,491.666346 L2.920822,494.243525 C14.634334,497.578823 49.784748,506.985609 62.097226,506.985609 L838.723546,506.985609 C845.80697,506.985609 860.14803,503.929573 872.938244,500.809792 C886.260074,497.559861 897.902644,494.243525 897.902644,494.243525 L890.553412,491.666346 C439.784352,491.169648 282.535572,490.883185 202.501322,490.883185" id="path-1"></path> <filter x="-4.2%" y="-87.5%" width="108.4%" height="426.9%" filterUnits="objectBoundingBox" id="filter-2"> <feMorphology radius="1.5" operator="dilate" in="SourceAlpha" result="shadowSpreadOuter1"></feMorphology> <feOffset dx="0" dy="14" in="shadowSpreadOuter1" result="shadowOffsetOuter1"></feOffset> <feGaussianBlur stdDeviation="7" in="shadowOffsetOuter1" result="shadowBlurOuter1"></feGaussianBlur> <feColorMatrix values="0 0 0 0 0 0 0 0 0 0 0 0 0 0 0 0 0 0 0.1 0" type="matrix" in="shadowBlurOuter1"></feColorMatrix> </filter> <linearGradient x1="50%" y1="100%" x2="50%" y2="0%" id="linearGradient-3"> <stop stop-color="#A4A4A4" offset="0%"></stop> <stop stop-color="#FFFFFF" offset="100%"></stop> </linearGradient> <path d="M202.501322,490.883185 C129.080842,490.883185 120.637846,491.125644 10.269156,491.666346 L2.920822,494.243525 C14.634334,497.578823 49.784748,506.985609 62.097226,506.985609 L838.723546,506.985609 C845.80697,506.985609 860.14803,503.929573 872.938244,500.809792 C886.260074,497.559861 897.902644,494.243525 897.902644,494.243525 L890.553412,491.666346 C439.784352,491.169648 282.535572,490.883185 202.501322,490.883185" id="path-4"></path> <linearGradient x1="50%" y1="100%" x2="50%" y2="0%" id="linearGradient-5"> <stop stop-color="#E6E6E6" offset="0%"></stop> <stop stop-color="#EFEFEF" offset="100%"></stop> </linearGradient> <path d="M514.74062,487.558114 L385.736388,487.558114 C392.498321,490.673721 400.826228,492.071216 407.493641,492.071216 L492.986564,492.071216 C499.612833,492.071216 507.972432,490.676383 514.74062,487.558114" id="path-6"></path> </defs> <g id="Page-1" stroke="none" stroke-width="1" fill="none" fill-rule="evenodd"> <g id="12" transform="translate(-262.000000, -259.000000)"> <g id="Macbook" transform="translate(270.000000, 258.000000)"> <g id="Shape-3-copy-3"> <use fill="black" fill-opacity="1" filter="url(#filter-2)" xlink:href="#path-1"></use> <use fill="#F3F3F3" fill-rule="evenodd" xlink:href="#path-1"></use> </g> <path d="M790.48875,1.99479 L109.933425,1.99479 C98.5299,1.99479 89.28615,11.26167 89.28615,22.68945 L89.28615,479.04752 C89.28615,482.28152 90.02565,485.3401 91.3437,488.06597 L385.656,488.06597 L385.656,488.06597 L514.764,488.06597 L514.764,488.06597 L809.0763,488.06597 C810.395075,485.3401 811.1382,482.28152 811.1382,479.04752 L811.1382,22.68945 C811.1382,11.26167 801.892275,1.99479 790.48875,1.99479" id="Rectangle-1-copy-4" fill="#F3F3F3"></path> <path d="M452.61992,16.08632 C452.61992,17.420064 451.540456,18.501856 450.211024,18.501856 C448.879536,18.501856 447.802128,17.420064 447.802128,16.08632 C447.802128,14.7522 448.879536,13.670408 450.211024,13.670408 C451.540456,13.670408 452.61992,14.7522 452.61992,16.08632 Z" id="Rectangle-2-copy-2" fill="#CBCBCB"></path> <g id="Shape-3-copy-2"> <use fill="#F3F3F3" xlink:href="#path-4"></use> <use fill="url(#linearGradient-3)" xlink:href="#path-4"></use> </g> <path d="M896.3982,487.6636 L4.5864,487.6636 C3.1554,487.6636 1.998,488.82318 1.998,490.25748 L1.998,491.91488 C1.998,493.3488 3.1554,494.50838 4.5864,494.50838 L896.3982,494.50838 C897.8301,494.50838 898.9866,493.3488 898.9866,491.91488 L898.9866,490.25748 C898.9866,488.82318 897.8301,487.6636 896.3982,487.6636" id="Shape-2-copy-2" fill="#FFFFFF"></path> <g id="Shape-4-copy-2"> <use fill="#E7E7E7" xlink:href="#path-6"></use> <use fill="url(#linearGradient-5)" xlink:href="#path-6"></use> </g> </g> </g> </g></svg>
