<svg xmlns="http://www.w3.org/2000/svg" fill="none" height="742" viewBox="0 0 847 742" width="847" class="sponsors-cta-bg events-none col-12 col-sm-8 col-lg-6 col-xl-5 position-absolute bottom-n10 right-n12 right-md-n6 right-lg-0 height-auto"><rect fill="#f9f9f9" height="41.7456" rx="5" width="41.7456" x="352" y="149.512"></rect><rect fill="#f9f9f9" height="41.7456" rx="5" width="41.7456" x="754.277" y="48.9316"></rect><rect fill="#f9f9f9" height="41.7456" rx="5" width="41.7456" x="301.719" y="199.803"></rect><rect fill="#f9f9f9" height="41.7456" rx="5" width="41.7456" x="703.992" y="48.9316"></rect><rect fill="#f9f9f9" height="41.7456" rx="5" width="41.7456" x="703.992" y="99.2217"></rect><rect fill="#f9f9f9" height="41.7456" rx="5" width="41.7456" x="402.285"></rect><rect fill="#f9f9f9" height="41.7456" rx="5" width="41.7456" x="452.57" y="149.512"></rect><rect fill="#f9f9f9" height="41.7456" rx="5" width="41.7456" x="452.57" y="199.803"></rect><rect fill="#ec6cb9" height="41.7456" rx="5" width="41.7456" x="653.711" y="149.512"></rect><rect fill="#f9f9f9" height="41.7456" rx="5" width="41.7456" x="653.711" y="199.803"></rect><rect fill="#ffeef8" height="41.7456" rx="5" width="41.7456" x="553.141" y="149.512"></rect><rect fill="#ec6cb9" height="41.7456" rx="5" width="41.7456" x="553.141" y="48.9316"></rect><rect fill="#f9f9f9" height="41.7456" rx="5" width="41.7456" x="553.141" y="199.803"></rect><rect fill="#ffeef8" height="41.7456" rx="5" width="41.7456" x="553.141" y="99.2217"></rect><rect fill="#f9f9f9" height="41.7456" rx="5" width="41.7456" x="352" y="199.803"></rect><rect fill="#f9f9f9" height="41.7456" rx="5" width="41.7456" x="250" y="149.222"></rect><rect fill="#ffeef8" height="41.7456" rx="5" width="41.7456" x="754.277" y="149.512"></rect><rect fill="#f9f9f9" height="41.7456" rx="5" width="41.7456" x="754.277" y="199.803"></rect><rect fill="#f9f9f9" height="41.7456" rx="5" width="41.7456" x="754.277" y="99.2217"></rect><rect fill="#f9f9f9" height="41.7456" rx="5" width="41.7456" x="502.852" y="149.512"></rect><rect fill="#f9f9f9" height="41.7456" rx="5" width="41.7456" x="502.852" y="199.803"></rect><rect fill="#ec6cb9" height="41.7456" rx="5" width="41.7456" x="502.852" y="99.2217"></rect><rect fill="#ffeef8" height="41.7456" rx="5" width="41.7456" x="703.992" y="149.512"></rect><rect fill="#f9f9f9" height="41.7456" rx="5" width="41.7456" x="703.992" y="199.803"></rect><rect fill="#f9f9f9" height="41.7456" rx="5" width="41.7456" x="603.422" y="199.803"></rect><rect fill="#ffeef8" height="41.7456" rx="5" width="41.7456" x="402.285" y="149.512"></rect><rect fill="#eee" height="41.7456" rx="5" width="41.7456" x="402.285" y="199.803"></rect><rect fill="#eee" height="41.7456" rx="5" width="41.7456" x="402.285" y="99.2217"></rect><rect fill="#f9f9f9" height="41.7456" rx="5" width="41.7456" x="804.562" y="149.512"></rect><rect fill="#eee" height="41.7456" rx="5" width="41.7456" x="804.562" y="48.9316"></rect><rect fill="#f9f9f9" height="41.7456" rx="5" width="41.7456" x="804.562" y="199.803"></rect><rect fill="#f9f9f9" height="41.7456" rx="5" width="41.7456" x="804.562"></rect><rect fill="#f9f9f9" height="41.7456" rx="5" width="41.7456" x="804.562" y="99.2217"></rect><rect fill="#f9f9f9" height="41.7456" rx="5" width="41.7456" x="452.562" y="250"></rect><rect fill="#f9f9f9" height="41.7456" rx="5" width="41.7456" x="251.422" y="250"></rect><rect fill="#f9f9f9" height="41.7456" rx="5" width="41.7456" x="653.703" y="250"></rect><rect fill="#f9f9f9" height="41.7456" rx="5" width="41.7456" x="553.133" y="250"></rect><rect fill="#f9f9f9" height="41.7456" rx="5" width="41.7456" x="351.992" y="250"></rect><rect fill="#f9f9f9" height="41.7456" rx="5" width="41.7456" x="754.27" y="250"></rect><rect fill="#eee" height="41.7456" rx="5" width="41.7456" x="100.57" y="250"></rect><rect fill="#eee" height="41.7456" rx="5" width="41.7456" x="502.844" y="250"></rect><rect fill="#f9f9f9" height="41.7456" rx="5" width="41.7456" x="301.711" y="250"></rect><rect fill="#f9f9f9" height="41.7456" rx="5" width="41.7456" x="703.984" y="250"></rect><rect fill="#f9f9f9" height="41.7456" rx="5" width="41.7456" x="201.141" y="250"></rect><rect fill="#f9f9f9" height="41.7456" rx="5" width="41.7456" x="603.414" y="250"></rect><rect fill="#f9f9f9" height="41.7456" rx="5" width="41.7456" x="402.277" y="250"></rect><rect fill="#f9f9f9" height="41.7456" rx="5" width="41.7456" y="250"></rect><rect fill="#f9f9f9" height="41.7456" rx="5" width="41.7456" x="804.555" y="250"></rect><rect fill="#f9f9f9" height="41.7456" rx="5" width="41.7456" x="50.2891" y="300.29"></rect><rect fill="#eee" height="41.7456" rx="5" width="41.7456" x="50.2891" y="599.313"></rect><rect fill="#f9f9f9" height="41.7456" rx="5" width="41.7456" x="50.2891" y="549.29"></rect><rect fill="#f9f9f9" height="41.7456" rx="5" width="41.7456" x="452.562" y="649.604"></rect><rect fill="#f9f9f9" height="41.7456" rx="5" width="41.7456" x="452.562" y="449.802"></rect><rect fill="#f9f9f9" height="41.7456" rx="5" width="41.7456" x="452.562" y="349.221"></rect><rect fill="#f9f9f9" height="41.7456" rx="5" width="41.7456" x="452.562" y="549.023"></rect><rect fill="#f9f9f9" height="41.7456" rx="5" width="41.7456" x="452.562" y="300.29"></rect><rect fill="#f9f9f9" height="41.7456" rx="5" width="41.7456" x="452.562" y="699.895"></rect><rect fill="#f9f9f9" height="41.7456" rx="5" width="41.7456" x="452.562" y="500.092"></rect><rect fill="#eee" height="41.7456" rx="5" width="41.7456" x="452.562" y="399.512"></rect><rect fill="#f9f9f9" height="41.7456" rx="5" width="41.7456" x="452.562" y="599.313"></rect><rect fill="#fedbf0" height="41.7456" rx="5" width="41.7456" x="251.422" y="649.604"></rect><rect fill="#f9f9f9" height="41.7456" rx="5" width="41.7456" x="251.422" y="449.802"></rect><rect fill="#f9f9f9" height="41.7456" rx="5" width="41.7456" x="251.422" y="349.221"></rect><rect fill="#f9f9f9" height="41.7456" rx="5" width="41.7456" x="251.422" y="549.023"></rect><rect fill="#f9f9f9" height="41.7456" rx="5" width="41.7456" x="251.422" y="300.29"></rect><rect fill="#f9f9f9" height="41.7456" rx="5" width="41.7456" x="251.422" y="699.895"></rect><rect fill="#f9f9f9" height="41.7456" rx="5" width="41.7456" x="251.422" y="500.092"></rect><rect fill="#f9f9f9" height="41.7456" rx="5" width="41.7456" x="251.422" y="399.512"></rect><rect fill="#f9f9f9" height="41.7456" rx="5" width="41.7456" x="251.422" y="599.313"></rect><rect fill="#eee" height="41.7456" rx="5" width="41.7456" x="653.703" y="649.604"></rect><rect fill="#f9f9f9" height="41.7456" rx="5" width="41.7456" x="653.703" y="449.802"></rect><rect fill="#ec6cb9" height="41.7456" rx="5" width="41.7456" x="653.703" y="349.221"></rect><rect fill="#f9f9f9" height="41.7456" rx="5" width="41.7456" x="653.703" y="549.023"></rect><rect fill="#f9f9f9" height="41.7456" rx="5" width="41.7456" x="653.703" y="300.29"></rect><rect fill="#f9f9f9" height="41.7456" rx="5" width="41.7456" x="653.703" y="699.895"></rect><rect fill="#f9f9f9" height="41.7456" rx="5" width="41.7456" x="653.703" y="500.092"></rect><rect fill="#ffeef8" height="41.7456" rx="5" width="41.7456" x="653.703" y="399.512"></rect><rect fill="#eee" height="41.7456" rx="5" width="41.7456" x="653.703" y="599.313"></rect><rect fill="#f9f9f9" height="41.7456" rx="5" width="41.7456" x="150.855" y="649.604"></rect><rect fill="#f9f9f9" height="41.7456" rx="5" width="41.7456" x="150.855" y="349.221"></rect><rect fill="#f9f9f9" height="41.7456" rx="5" width="41.7456" x="150.855" y="549.023"></rect><rect fill="#f9f9f9" height="41.7456" rx="5" width="41.7456" x="150.855" y="300.29"></rect><rect fill="#eee" height="41.7456" rx="5" width="41.7456" x="150.855" y="699.895"></rect><rect fill="#f9f9f9" height="41.7456" rx="5" width="41.7456" x="150.855" y="500.092"></rect><rect fill="#f9f9f9" height="41.7456" rx="5" width="41.7456" x="150.855" y="599.313"></rect><rect fill="#f9f9f9" height="41.7456" rx="5" width="41.7456" x="553.133" y="649.604"></rect><rect fill="#f9f9f9" height="41.7456" rx="5" width="41.7456" x="553.133" y="449.802"></rect><rect fill="#f9f9f9" height="41.7456" rx="5" width="41.7456" x="553.133" y="349.221"></rect><rect fill="#ec6cb9" height="41.7456" rx="5" width="41.7456" x="553.133" y="549.023"></rect><rect fill="#f9f9f9" height="41.7456" rx="5" width="41.7456" x="553.133" y="300.29"></rect><rect fill="#f9f9f9" height="41.7456" rx="5" width="41.7456" x="553.133" y="699.895"></rect><rect fill="#f9f9f9" height="41.7456" rx="5" width="41.7456" x="553.133" y="500.092"></rect><rect fill="#f9f9f9" height="41.7456" rx="5" width="41.7456" x="553.133" y="399.512"></rect><rect fill="#f9f9f9" height="41.7456" rx="5" width="41.7456" x="553.133" y="599.313"></rect><rect fill="#f9f9f9" height="41.7456" rx="5" width="41.7456" x="351.992" y="649.604"></rect><rect fill="#f9f9f9" height="41.7456" rx="5" width="41.7456" x="351.992" y="449.802"></rect><rect fill="#f9f9f9" height="41.7456" rx="5" width="41.7456" x="351.992" y="349.221"></rect><rect fill="#f9f9f9" height="41.7456" rx="5" width="41.7456" x="351.992" y="549.023"></rect><rect fill="#f9f9f9" height="41.7456" rx="5" width="41.7456" x="351.992" y="300.29"></rect><rect fill="#f9f9f9" height="41.7456" rx="5" width="41.7456" x="351.992" y="699.895"></rect><rect fill="#f9f9f9" height="41.7456" rx="5" width="41.7456" x="351.992" y="500.092"></rect><rect fill="#f9f9f9" height="41.7456" rx="5" width="41.7456" x="351.992" y="399.512"></rect><rect fill="#f9f9f9" height="41.7456" rx="5" width="41.7456" x="351.992" y="599.313"></rect><rect fill="#ffeef8" height="41.7456" rx="5" width="41.7456" x="754.27" y="649.604"></rect><rect fill="#f9f9f9" height="41.7456" rx="5" width="41.7456" x="754.27" y="449.802"></rect><rect fill="#f9f9f9" height="41.7456" rx="5" width="41.7456" x="754.27" y="349.221"></rect><rect fill="#f9f9f9" height="41.7456" rx="5" width="41.7456" x="754.27" y="549.023"></rect><rect fill="#f9f9f9" height="41.7456" rx="5" width="41.7456" x="754.27" y="300.29"></rect><rect fill="#f9f9f9" height="41.7456" rx="5" width="41.7456" x="754.27" y="699.895"></rect><rect fill="#eee" height="41.7456" rx="5" width="41.7456" x="754.27" y="500.092"></rect><g fill="#f9f9f9"><rect height="41.7456" rx="5" width="41.7456" x="754.27" y="399.512"></rect><rect height="41.7456" rx="5" width="41.7456" x="754.27" y="599.313"></rect><rect height="41.7456" rx="5" width="41.7456" x="100.57" y="649.604"></rect><rect height="41.7456" rx="5" width="41.7456" x="100.57" y="699.895"></rect><rect height="41.7456" rx="5" width="41.7456" x="100.57" y="599.313"></rect><rect height="41.7456" rx="5" width="41.7456" x="502.844" y="649.604"></rect><rect height="41.7456" rx="5" width="41.7456" x="502.844" y="449.802"></rect><rect height="41.7456" rx="5" width="41.7456" x="502.844" y="349.221"></rect><rect height="41.7456" rx="5" width="41.7456" x="502.844" y="549.023"></rect><rect height="41.7456" rx="5" width="41.7456" x="502.844" y="300.29"></rect><rect height="41.7456" rx="5" width="41.7456" x="502.844" y="699.895"></rect><rect height="41.7456" rx="5" width="41.7456" x="502.844" y="500.092"></rect><rect height="41.7456" rx="5" width="41.7456" x="502.844" y="399.512"></rect><rect height="41.7456" rx="5" width="41.7456" x="502.844" y="599.313"></rect><rect height="41.7456" rx="5" width="41.7456" x="301.711" y="649.604"></rect><rect height="41.7456" rx="5" width="41.7456" x="301.711" y="449.802"></rect><rect height="41.7456" rx="5" width="41.7456" x="301.711" y="349.221"></rect><rect height="41.7456" rx="5" width="41.7456" x="301.711" y="549.023"></rect></g><rect fill="#eee" height="41.7456" rx="5" width="41.7456" x="301.711" y="300.29"></rect><rect fill="#f9f9f9" height="41.7456" rx="5" width="41.7456" x="301.711" y="699.895"></rect><rect fill="#f9f9f9" height="41.7456" rx="5" width="41.7456" x="301.711" y="500.092"></rect><rect fill="#f9f9f9" height="41.7456" rx="5" width="41.7456" x="301.711" y="399.512"></rect><rect fill="#f9f9f9" height="41.7456" rx="5" width="41.7456" x="301.711" y="599.313"></rect><rect fill="#f9f9f9" height="41.7456" rx="5" width="41.7456" x="703.984" y="649.604"></rect><rect fill="#f9f9f9" height="41.7456" rx="5" width="41.7456" x="703.984" y="449.802"></rect><rect fill="#f9f9f9" height="41.7456" rx="5" width="41.7456" x="703.984" y="349.221"></rect><rect fill="#f9f9f9" height="41.7456" rx="5" width="41.7456" x="703.984" y="549.023"></rect><rect fill="#f692ce" height="41.7456" rx="5" width="41.7456" x="703.984" y="300.29"></rect><rect fill="#f9f9f9" height="41.7456" rx="5" width="41.7456" x="703.984" y="699.895"></rect><rect fill="#f9f9f9" height="41.7456" rx="5" width="41.7456" x="703.984" y="500.092"></rect><rect fill="#f9f9f9" height="41.7456" rx="5" width="41.7456" x="703.984" y="399.512"></rect><rect fill="#f9f9f9" height="41.7456" rx="5" width="41.7456" x="703.984" y="599.313"></rect><rect fill="#f9f9f9" height="41.7456" rx="5" width="41.7456" x="201.141" y="649.604"></rect><rect fill="#f9b3dd" height="41.7456" rx="5" width="41.7456" x="201.141" y="349.221"></rect><rect fill="#f9f9f9" height="41.7456" rx="5" width="41.7456" x="201.141" y="549.023"></rect><rect fill="#f9f9f9" height="41.7456" rx="5" width="41.7456" x="201.141" y="300.29"></rect><rect fill="#f9f9f9" height="41.7456" rx="5" width="41.7456" x="201.141" y="399.512"></rect><rect fill="#ea4aaa" height="41.7456" rx="5" width="41.7456" x="201.141" y="599.313"></rect><rect fill="#f9f9f9" height="41.7456" rx="5" width="41.7456" x="603.414" y="649.604"></rect><rect fill="#f9f9f9" height="41.7456" rx="5" width="41.7456" x="603.414" y="449.802"></rect><rect fill="#f9f9f9" height="41.7456" rx="5" width="41.7456" x="603.414" y="349.221"></rect><rect fill="#f9f9f9" height="41.7456" rx="5" width="41.7456" x="603.414" y="549.023"></rect><rect fill="#f9f9f9" height="41.7456" rx="5" width="41.7456" x="603.414" y="300.29"></rect><rect fill="#f9f9f9" height="41.7456" rx="5" width="41.7456" x="603.414" y="699.895"></rect><rect fill="#f9f9f9" height="41.7456" rx="5" width="41.7456" x="603.414" y="500.092"></rect><rect fill="#f9f9f9" height="41.7456" rx="5" width="41.7456" x="603.414" y="399.512"></rect><rect fill="#f9f9f9" height="41.7456" rx="5" width="41.7456" x="603.414" y="599.313"></rect><rect fill="#f9f9f9" height="41.7456" rx="5" width="41.7456" x="402.277" y="649.604"></rect><rect fill="#eee" height="41.7456" rx="5" width="41.7456" x="402.277" y="449.802"></rect><rect fill="#f9f9f9" height="41.7456" rx="5" width="41.7456" x="402.277" y="349.221"></rect><rect fill="#f9f9f9" height="41.7456" rx="5" width="41.7456" x="402.277" y="549.023"></rect><rect fill="#f9f9f9" height="41.7456" rx="5" width="41.7456" x="402.277" y="300.29"></rect><rect fill="#f9f9f9" height="41.7456" rx="5" width="41.7456" x="402.277" y="699.895"></rect><rect fill="#f9f9f9" height="41.7456" rx="5" width="41.7456" x="402.277" y="500.092"></rect><rect fill="#f9f9f9" height="41.7456" rx="5" width="41.7456" x="402.277" y="399.512"></rect><rect fill="#f9f9f9" height="41.7456" rx="5" width="41.7456" x="402.277" y="599.313"></rect><rect fill="#eee" height="41.7456" rx="5" width="41.7456" y="649.604"></rect><rect fill="#f9f9f9" height="41.7456" rx="5" width="41.7456" y="599.313"></rect><rect fill="#f9f9f9" height="41.7456" rx="5" width="41.7456" x="804.555" y="649.604"></rect><rect fill="#f9f9f9" height="41.7456" rx="5" width="41.7456" x="804.555" y="449.802"></rect><rect fill="#f9f9f9" height="41.7456" rx="5" width="41.7456" x="804.555" y="349.221"></rect><rect fill="#eee" height="41.7456" rx="5" width="41.7456" x="804.555" y="549.023"></rect><rect fill="#f9f9f9" height="41.7456" rx="5" width="41.7456" x="804.555" y="300.29"></rect><rect fill="#f9f9f9" height="41.7456" rx="5" width="41.7456" x="804.555" y="699.895"></rect><rect fill="#f9f9f9" height="41.7456" rx="5" width="41.7456" x="804.555" y="500.092"></rect><rect fill="#f9f9f9" height="41.7456" rx="5" width="41.7456" x="804.555" y="399.512"></rect><rect fill="#f9f9f9" height="41.7456" rx="5" width="41.7456" x="804.555" y="599.313"></rect></svg>