

<svg width="100%" height="560" viewBox="0 0 1440 560" fill="none" preserveAspectRatio="none" xmlns="http://www.w3.org/2000/svg">
<g clip-path="url(#clip0_1577_5621)">
<path d="M-108.068 216.429C-261.002 293.42 -366.853 450.327 -400.662 519.158V712.567H1498.86V-60.137C1306.76 147.755 1195.52 203.816 1057.17 243.993C918.816 284.17 802.9 246.796 779.997 243.993C757.095 241.19 524.796 181.859 368.216 158.5C211.636 135.141 83.1001 120.192 -108.068 216.429Z"></path>
<path d="M-374.263 711.136C-374.263 711.136 -166.967 349.05 342.239 502.511C851.446 655.973 1498.04 -59.3681 1498.04 -59.3681" stroke="url(#paint0_linear_1577_5621)" stroke-width="2" stroke-miterlimit="10"></path>
<path d="M-375.885 699.372C-375.885 699.372 -169.742 333.078 337.934 480.226C841.605 626.875 1465.23 -33.9333 1497.36 -36.9772" stroke="url(#paint1_linear_1577_5621)" stroke-width="2" stroke-miterlimit="10"></path>
<path d="M-377.466 687.686C-377.466 687.686 -172.417 317.204 333.687 457.96C831.804 597.855 1432.52 -8.40036 1496.73 -14.5672" stroke="url(#paint2_linear_1577_5621)" stroke-width="2" stroke-miterlimit="10"></path>
<path d="M-379.087 675.922C-379.087 675.922 -175.131 301.252 329.442 435.695C822.005 568.837 1399.82 17.0735 1496.1 7.84352" stroke="url(#paint3_linear_1577_5621)" stroke-width="2" stroke-miterlimit="10"></path>
<path d="M-380.728 664.219C-380.728 664.219 -177.558 284.203 325.136 413.41C812.392 538.622 1367.01 42.5084 1495.41 30.2345" stroke="url(#paint4_linear_1577_5621)" stroke-width="2" stroke-miterlimit="10"></path>
<path d="M-382.349 652.454C-382.349 652.454 -180.275 268.051 320.83 391.125C802.59 509.404 1334.23 68.0221 1494.72 52.6252" stroke="url(#paint5_linear_1577_5621)" stroke-width="2" stroke-miterlimit="10"></path>
<path d="M-383.91 640.709C-383.91 640.709 -182.89 251.998 316.604 368.799C792.788 480.186 1301.5 93.4166 1494.12 74.9759" stroke="url(#paint6_linear_1577_5621)" stroke-width="2" stroke-miterlimit="10"></path>
<path d="M-385.551 629.004C-385.551 629.004 -185.665 236.026 312.279 346.574C782.888 451.068 1268.73 118.931 1493.41 97.4267" stroke="url(#paint7_linear_1577_5621)" stroke-width="2" stroke-miterlimit="10"></path>
<path d="M-387.173 617.24C-387.173 617.24 -188.361 220.014 308.053 324.249C773.126 421.93 1236.03 144.404 1492.74 119.758" stroke="url(#paint8_linear_1577_5621)" stroke-width="2" stroke-miterlimit="10"></path>
<path d="M-388.734 605.495C-388.734 605.495 -191.016 204.081 303.807 301.983C763.267 392.891 1203.28 169.858 1492.13 142.109" stroke="url(#paint9_linear_1577_5621)" stroke-width="2" stroke-miterlimit="10"></path>
<path d="M-390.375 593.791C-390.375 593.791 -193.829 188.229 299.482 279.758C753.368 363.973 1170.51 195.373 1491.43 164.559" stroke="url(#paint10_linear_1577_5621)" stroke-width="2" stroke-miterlimit="10"></path>
<path d="M-391.996 582.026C-391.996 582.026 -196.563 172.336 295.196 257.413C743.489 334.993 1137.75 220.826 1490.76 186.89" stroke="url(#paint11_linear_1577_5621)" stroke-width="2" stroke-miterlimit="10"></path>
<path d="M-393.636 570.322C-393.636 570.322 -199.354 156.623 290.932 235.207C733.572 306.135 1104.98 246.34 1490.11 209.36" stroke="url(#paint12_linear_1577_5621)" stroke-width="2" stroke-miterlimit="10"></path>
<path d="M-395.199 558.578C-395.199 558.578 -202.087 140.93 286.704 212.882C723.732 277.236 1072.3 271.755 1489.5 231.711" stroke="url(#paint13_linear_1577_5621)" stroke-width="2" stroke-miterlimit="10"></path>
<path d="M-396.82 546.813C-396.82 546.813 -204.951 126.053 282.399 190.597C713.762 249.154 1039.47 297.249 1488.81 254.102" stroke="url(#paint14_linear_1577_5621)" stroke-width="2" stroke-miterlimit="10"></path>
<path d="M-398.461 535.109C-398.461 535.109 -207.686 110.161 278.093 168.312C703.901 220.115 1006.72 322.704 1488.13 276.494" stroke="url(#paint15_linear_1577_5621)" stroke-width="2" stroke-miterlimit="10"></path>
<path d="M-400.081 523.344C-400.081 523.344 -210.399 94.2074 273.848 146.046C694.062 191.016 974.024 348.176 1487.5 298.903" stroke="url(#paint16_linear_1577_5621)" stroke-width="2" stroke-miterlimit="10"></path>
</g>
<defs>
<linearGradient id="paint0_linear_1577_5621" x1="763.058" y1="-296.812" x2="360.723" y2="948.58" gradientUnits="userSpaceOnUse">
<stop stop-color="#2f80ec"></stop>
<stop offset="1" stop-color="#52198A"></stop>
</linearGradient>
<linearGradient id="paint1_linear_1577_5621" x1="756.953" y1="-276.172" x2="364.52" y2="938.567" gradientUnits="userSpaceOnUse">
<stop stop-color="#2f80ec"></stop>
<stop offset="1" stop-color="#52198A"></stop>
</linearGradient>
<linearGradient id="paint2_linear_1577_5621" x1="750.905" y1="-255.512" x2="368.356" y2="928.631" gradientUnits="userSpaceOnUse">
<stop stop-color="#2f80ec"></stop>
<stop offset="1" stop-color="#52198A"></stop>
</linearGradient>
<linearGradient id="paint3_linear_1577_5621" x1="744.83" y1="-234.862" x2="372.184" y2="918.627" gradientUnits="userSpaceOnUse">
<stop stop-color="#2f80ec"></stop>
<stop offset="1" stop-color="#52198A"></stop>
</linearGradient>
<linearGradient id="paint4_linear_1577_5621" x1="738.723" y1="-214.221" x2="375.961" y2="908.674" gradientUnits="userSpaceOnUse">
<stop stop-color="#2f80ec"></stop>
<stop offset="1" stop-color="#52198A"></stop>
</linearGradient>
<linearGradient id="paint5_linear_1577_5621" x1="732.617" y1="-193.581" x2="379.758" y2="898.66" gradientUnits="userSpaceOnUse">
<stop stop-color="#2f80ec"></stop>
<stop offset="1" stop-color="#52198A"></stop>
</linearGradient>
<linearGradient id="paint6_linear_1577_5621" x1="726.59" y1="-172.981" x2="383.615" y2="888.665" gradientUnits="userSpaceOnUse">
<stop stop-color="#2f80ec"></stop>
<stop offset="1" stop-color="#52198A"></stop>
</linearGradient>
<linearGradient id="paint7_linear_1577_5621" x1="720.465" y1="-152.28" x2="387.393" y2="878.711" gradientUnits="userSpaceOnUse">
<stop stop-color="#2f80ec"></stop>
<stop offset="1" stop-color="#52198A"></stop>
</linearGradient>
<linearGradient id="paint8_linear_1577_5621" x1="714.378" y1="-131.699" x2="391.19" y2="868.698" gradientUnits="userSpaceOnUse">
<stop stop-color="#2f80ec"></stop>
<stop offset="1" stop-color="#52198A"></stop>
</linearGradient>
<linearGradient id="paint9_linear_1577_5621" x1="708.351" y1="-111.099" x2="395.047" y2="858.703" gradientUnits="userSpaceOnUse">
<stop stop-color="#2f80ec"></stop>
<stop offset="1" stop-color="#52198A"></stop>
</linearGradient>
<linearGradient id="paint10_linear_1577_5621" x1="702.225" y1="-90.399" x2="398.825" y2="848.749" gradientUnits="userSpaceOnUse">
<stop stop-color="#2f80ec"></stop>
<stop offset="1" stop-color="#52198A"></stop>
</linearGradient>
<linearGradient id="paint11_linear_1577_5621" x1="696.138" y1="-69.8188" x2="402.622" y2="838.735" gradientUnits="userSpaceOnUse">
<stop stop-color="#2f80ec"></stop>
<stop offset="1" stop-color="#52198A"></stop>
</linearGradient>
<linearGradient id="paint12_linear_1577_5621" x1="690.044" y1="-49.1089" x2="406.43" y2="828.791" gradientUnits="userSpaceOnUse">
<stop stop-color="#2f80ec"></stop>
<stop offset="1" stop-color="#52198A"></stop>
</linearGradient>
<linearGradient id="paint13_linear_1577_5621" x1="684.016" y1="-28.5079" x2="410.286" y2="818.797" gradientUnits="userSpaceOnUse">
<stop stop-color="#2f80ec"></stop>
<stop offset="1" stop-color="#52198A"></stop>
</linearGradient>
<linearGradient id="paint14_linear_1577_5621" x1="677.91" y1="-7.8675" x2="414.083" y2="808.783" gradientUnits="userSpaceOnUse">
<stop stop-color="#2f80ec"></stop>
<stop offset="1" stop-color="#52198A"></stop>
</linearGradient>
<linearGradient id="paint15_linear_1577_5621" x1="671.804" y1="12.7732" x2="417.861" y2="798.829" gradientUnits="userSpaceOnUse">
<stop stop-color="#2f80ec"></stop>
<stop offset="1" stop-color="#52198A"></stop>
</linearGradient>
<linearGradient id="paint16_linear_1577_5621" x1="665.729" y1="33.4228" x2="421.689" y2="788.825" gradientUnits="userSpaceOnUse">
<stop stop-color="#2f80ec"></stop>
<stop offset="1" stop-color="#52198A"></stop>
</linearGradient>
<clipPath id="clip0_1577_5621">
<rect width="1440" height="560"></rect>
</clipPath>
</defs>
</svg>