
<svg xmlns="http://www.w3.org/2000/svg" preserveAspectRatio="none" viewBox="0 0 1440 569" fill="none" class="o-image__image">
<g clip-path="url(#clip0_504_5216)">
<path opacity="0.8" d="M-2358.84 1091.37C-1722.73 933.136 -906.457 809.847 -332.045 544.67C27.5026 378.686 380.604 189.169 820.628 214.025C1158.63 233.123 1291.55 340.524 1534.66 349.064" stroke="url(#paint0_linear_504_5216)" stroke-width="2" stroke-miterlimit="10"></path>
<path opacity="0.8" d="M-2367.75 1065.03C-1774.05 917.348 -917.837 809.748 -322.83 528.981C25.1223 364.784 384.584 166.199 838.237 206.942C1191.94 238.683 1302.4 367.366 1529.3 375.343" stroke="url(#paint1_linear_504_5216)" stroke-width="2" stroke-miterlimit="10"></path>
<path opacity="0.8" d="M-2376.67 1038.65C-1825.4 901.527 -929.043 809.88 -313.615 513.227C22.9154 351.049 388.564 143.428 855.804 199.793C1225.17 244.343 1313.18 394.109 1523.89 401.523" stroke="url(#paint2_linear_504_5216)" stroke-width="2" stroke-miterlimit="10"></path>
<path opacity="0.8" d="M-2385.58 1012.3C-1876.72 885.74 -940.032 810.277 -304.398 497.538C20.8393 337.512 392.459 120.822 873.371 192.644C1258.36 250.135 1324 420.885 1518.48 427.736" stroke="url(#paint3_linear_504_5216)" stroke-width="2" stroke-miterlimit="10"></path>
<path opacity="0.8" d="M-2394.49 985.959C-1928.03 869.919 -950.806 810.972 -295.183 481.817C18.9353 324.14 396.266 98.3488 890.937 185.495C1291.46 256.059 1334.81 447.661 1513.07 453.916" stroke="url(#paint4_linear_504_5216)" stroke-width="2" stroke-miterlimit="10"></path>
<path opacity="0.8" d="M-2403.41 959.614C-1979.35 854.132 -961.32 811.966 -285.967 466.13C17.118 310.935 400.03 76.0417 908.503 178.413C1324.51 262.183 1345.63 474.504 1507.71 480.196" stroke="url(#paint5_linear_504_5216)" stroke-width="2" stroke-miterlimit="10"></path>
<path opacity="0.8" d="M-2412.36 933.268C-2030.71 838.344 -971.618 813.257 -276.794 450.408C15.3874 297.829 403.622 53.767 926.07 171.263C1357.53 268.273 1356.4 501.246 1502.3 506.376" stroke="url(#paint6_linear_504_5216)" stroke-width="2" stroke-miterlimit="10"></path>
<path opacity="0.8" d="M-2421.28 906.923C-2082.02 822.524 -981.527 814.912 -267.536 434.687C13.8286 284.854 407.255 31.6249 943.678 164.115C1390.45 274.495 1367.26 528.022 1496.93 532.59" stroke="url(#paint7_linear_504_5216)" stroke-width="2" stroke-miterlimit="10"></path>
<path opacity="0.8" d="M-2430.19 880.577C-2133.33 806.736 -991.045 816.963 -258.32 418.998C12.3583 271.979 410.717 9.54841 961.245 157.031C1423.29 280.816 1378.08 554.864 1491.52 558.836" stroke="url(#paint8_linear_504_5216)" stroke-width="2" stroke-miterlimit="10"></path>
<path opacity="0.8" d="M-2439.1 854.231C-2184.65 790.949 -1000.17 819.379 -249.103 403.277C10.974 259.203 414.135 -12.5273 978.811 149.883C1456.09 287.138 1388.9 581.64 1486.12 585.049" stroke="url(#paint9_linear_504_5216)" stroke-width="2" stroke-miterlimit="10"></path>
<path opacity="0.8" d="M-2448.02 827.885C-2235.96 775.128 -1008.78 822.259 -239.888 387.589C9.67567 246.494 417.423 -34.5044 996.378 142.766C1488.76 293.526 1399.71 608.416 1480.71 611.262" stroke="url(#paint10_linear_504_5216)" stroke-width="2" stroke-miterlimit="10"></path>
<path opacity="0.8" d="M-2456.93 801.54C-2287.32 759.34 -1016.92 825.635 -230.672 371.868C8.5074 233.851 420.711 -56.481 1013.99 135.65C1521.46 299.98 1410.53 635.225 1475.39 637.509" stroke="url(#paint11_linear_504_5216)" stroke-width="2" stroke-miterlimit="10"></path>
<path opacity="0.8" d="M-2465.84 775.194C-2338.64 743.553 -1024.4 829.508 -221.412 356.179C7.46997 221.274 423.914 -78.3914 1031.6 128.535C1554.09 306.434 1421.39 662.001 1470.02 663.722" stroke="url(#paint12_linear_504_5216)" stroke-width="2" stroke-miterlimit="10"></path>
<path opacity="0.8" d="M-2474.75 748.848C-2389.95 727.765 -1031.24 833.975 -212.197 340.458C6.47416 208.696 427.029 -100.302 1049.16 121.385C1586.58 312.888 1432.21 688.777 1464.61 689.902" stroke="url(#paint13_linear_504_5216)" stroke-width="2" stroke-miterlimit="10"></path>
<path opacity="0.8" d="M-2483.71 722.502C-2441.31 711.944 -1037.3 839.072 -203.024 324.736C5.52241 196.185 429.495 -121.352 1066.69 114.236C1618.56 320.103 1442.98 715.553 1459.16 716.115" stroke="url(#paint14_linear_504_5216)" stroke-width="2" stroke-miterlimit="10"></path>
<path opacity="0.8" d="M-2492.62 696.157C-2492.62 696.157 -1042.49 844.864 -193.809 309.048C4.69988 183.708 433.042 -144.057 1084.25 107.153C1651.44 325.961 1453.75 742.362 1453.75 742.362" stroke="url(#paint15_linear_504_5216)" stroke-width="2" stroke-miterlimit="10"></path>
</g>
<defs>
<linearGradient id="paint0_linear_504_5216" x1="-412.089" y1="211.815" x2="-412.09" y2="1091.38" gradientUnits="userSpaceOnUse">
<stop stop-color="#8B9AE9"></stop>
<stop offset="1" stop-color="#0062BB"></stop>
</linearGradient>
<linearGradient id="paint1_linear_504_5216" x1="-419.229" y1="201.558" x2="-419.229" y2="1065.03" gradientUnits="userSpaceOnUse">
<stop stop-color="#8B9AE9"></stop>
<stop offset="1" stop-color="#0062BB"></stop>
</linearGradient>
<linearGradient id="paint2_linear_504_5216" x1="-426.39" y1="190.35" x2="-426.39" y2="1038.65" gradientUnits="userSpaceOnUse">
<stop stop-color="#8B9AE9"></stop>
<stop offset="1" stop-color="#0062BB"></stop>
</linearGradient>
<linearGradient id="paint3_linear_504_5216" x1="-433.55" y1="178.481" x2="-433.55" y2="1012.31" gradientUnits="userSpaceOnUse">
<stop stop-color="#8B9AE9"></stop>
<stop offset="1" stop-color="#0062BB"></stop>
</linearGradient>
<linearGradient id="paint4_linear_504_5216" x1="-440.711" y1="166.106" x2="-440.711" y2="985.959" gradientUnits="userSpaceOnUse">
<stop stop-color="#8B9AE9"></stop>
<stop offset="1" stop-color="#0062BB"></stop>
</linearGradient>
<linearGradient id="paint5_linear_504_5216" x1="-447.85" y1="153.395" x2="-447.85" y2="959.614" gradientUnits="userSpaceOnUse">
<stop stop-color="#8B9AE9"></stop>
<stop offset="1" stop-color="#0062BB"></stop>
</linearGradient>
<linearGradient id="paint6_linear_504_5216" x1="-455.032" y1="140.306" x2="-455.032" y2="933.268" gradientUnits="userSpaceOnUse">
<stop stop-color="#8B9AE9"></stop>
<stop offset="1" stop-color="#0062BB"></stop>
</linearGradient>
<linearGradient id="paint7_linear_504_5216" x1="-462.172" y1="126.981" x2="-462.172" y2="906.923" gradientUnits="userSpaceOnUse">
<stop stop-color="#8B9AE9"></stop>
<stop offset="1" stop-color="#0062BB"></stop>
</linearGradient>
<linearGradient id="paint8_linear_504_5216" x1="-469.332" y1="113.478" x2="-469.333" y2="880.577" gradientUnits="userSpaceOnUse">
<stop stop-color="#8B9AE9"></stop>
<stop offset="1" stop-color="#0062BB"></stop>
</linearGradient>
<linearGradient id="paint9_linear_504_5216" x1="-476.493" y1="99.7422" x2="-476.493" y2="854.231" gradientUnits="userSpaceOnUse">
<stop stop-color="#8B9AE9"></stop>
<stop offset="1" stop-color="#0062BB"></stop>
</linearGradient>
<linearGradient id="paint10_linear_504_5216" x1="-483.654" y1="85.8902" x2="-483.654" y2="827.885" gradientUnits="userSpaceOnUse">
<stop stop-color="#8B9AE9"></stop>
<stop offset="1" stop-color="#0062BB"></stop>
</linearGradient>
<linearGradient id="paint11_linear_504_5216" x1="-490.771" y1="71.8912" x2="-490.771" y2="801.54" gradientUnits="userSpaceOnUse">
<stop stop-color="#8B9AE9"></stop>
<stop offset="1" stop-color="#0062BB"></stop>
</linearGradient>
<linearGradient id="paint12_linear_504_5216" x1="-497.909" y1="57.7931" x2="-497.909" y2="775.195" gradientUnits="userSpaceOnUse">
<stop stop-color="#8B9AE9"></stop>
<stop offset="1" stop-color="#0062BB"></stop>
</linearGradient>
<linearGradient id="paint13_linear_504_5216" x1="-505.071" y1="43.5609" x2="-505.071" y2="748.849" gradientUnits="userSpaceOnUse">
<stop stop-color="#8B9AE9"></stop>
<stop offset="1" stop-color="#0062BB"></stop>
</linearGradient>
<linearGradient id="paint14_linear_504_5216" x1="-505.158" y1="29.6002" x2="-505.158" y2="729.167" gradientUnits="userSpaceOnUse">
<stop stop-color="#8B9AE9"></stop>
<stop offset="1" stop-color="#0062BB"></stop>
</linearGradient>
<linearGradient id="paint15_linear_504_5216" x1="-502.759" y1="14.8736" x2="-502.759" y2="742.361" gradientUnits="userSpaceOnUse">
<stop stop-color="#8B9AE9"></stop>
<stop offset="1" stop-color="#0062BB"></stop>
</linearGradient>
<clipPath id="clip0_504_5216">
<rect width="1440" height="569" fill="white"></rect>
</clipPath>
</defs>
</svg>