<?xml version="1.0" encoding="utf-8"?>
<svg x="0px" y="0px" viewBox="0 0 2453.15 853.25"
     xmlns="http://www.w3.org/2000/svg" xmlns:xlink="http://www.w3.org/1999/xlink"
     style="vertical-align:bottom;height:200px;transform:scaleX(3) rotate(180deg);width:100%">
    <style>
        .st1{
        fill:none;
        stroke:#2f80ec;
        stroke-width:5;
        stroke-miterlimit:10;
        }
        [data-theme='dark'] .st1 {
        stroke:#4f46e4;
        }
    </style>
    <defs>
        <path id="SVGID_1_" d="M0 0H2453.15V853.25H0z"></path>
    </defs>
    <g clip-path="url(#SVGID_2_)">
        <path class="st1"
              d="M-239.12 605.32c-4.79-34.23-9.01-71.62 1.46-105.24 4.82-15.48 13.15-27.22 24.76-38.4 6.42-6.19 13.16-12.04 19.53-18.28 3.22-3.15 18.29-16.21 17.19-21.08-.99-4.4 7.85-12.77 10.11-17.05 4.28-8.1 7.37-16.76 10.65-25.29 7.53-19.54 13.83-39.51 20.75-59.28 6.56-18.72 11.07-37.9 16.6-56.94 3.2-17.83 6.58-36.1 14.46-52.56C-76.11 153.67-2 147.64 53.38 153.93c42.32 4.8 82.92 18.02 124.92 24.62 41.03 6.45 82.67 6.73 124.11 7.73 40.07.97 79.83-3.66 119.79-5.49 40.88-1.87 81.88.42 122.41 5.95 42.08 5.9 84.01 13.95 124.35 27.54 36.5 12.3 71.13 31.88 106.14 47.63 78.44 35.41 164.32 47.52 247.82 64.52 40.27 8.19 79.41 21.81 115.21 42.14 29.24 16.61 56.67 37.42 71.15 68.52 6.7 14.38 12.33 29.15 21.69 42.11 11.71 16.22 27.62 29.72 43.46 41.78 33.77 25.73 71.18 45.25 112.1 56.71 41.06 11.5 82.75 19.19 122.14 36.08 34.85 14.95 75.61 34.48 100.38 64.13 22.12 26.49 45.18 51.68 77.81 65.92 37.89 16.54 80.63 23.89 121.84 21.33 43.74-2.72 86.59-13.48 130.3-16.36 42.04-2.76 87.28-4.25 128.68 4.77 14.76 3.21 28.74 9.19 43.4 12.52 15.13 3.43 30.76 2.78 46.11 1.56 34.64-2.75 69.53-12.47 102.36-23.46 63.42-21.24 122.29-53.21 183.84-79.07 62.73-26.36 127.82-50.56 194.19-66.01 35-8.14 70.46-14.13 105.33-22.82 37.08-9.25 73.63-20.45 110.69-29.76M647.43 1563.33c-13.02-37.24-25.08-77.98-22.3-117.88 1.3-18.6 9.97-35.43 13.66-53.58 5.67-20.42 5.9-41.32 5.5-62.34-1.71-89.57-18.9-177.04-28.95-265.74-4.91-36.79-3.08-72.5 7.18-107.69 9.44-32.36 33.86-66.17 71.08-64.05 18.94 1.08 37.07 8.27 55.94 10.12 19.96 1.96 40.67-5.19 58.8-12.96 16.93-7.25 33.66-16.62 47.63-28.68 15.17-13.1 28.47-28.55 45.57-39.31 33.09-20.81 71.49-19.89 107.79-6.46 39.73 14.69 66.51 43.17 94.8 73.22 27.19 28.89 59.9 52.06 95.7 69.14 16.92 8.08 34.38 14.17 52.92 17.2 21.08 3.45 42.45 4.67 62.7 12.04 33.35 12.98 64.69 39.95 83.92 70.01 22.48 35.16 27.71 74.18 43.38 112.14 12.47 30.2 34.29 64.18 64.4 79.34 14.37 7.23 29.28 7.07 44.99 5.56 20.22-1.95 36.35-2.27 55.62 3.59 14.53 4.42 27.91 12.43 38.09 23.77 10.69 11.9 14.31 32.73 29.66 39.63 30.93 13.9 72.66-32.75 92.55-50.01 29.81-25.86 65.59-53.03 103.54-65.66 15.38-5.12 29.49-7.8 43.67-16.36 17.78-10.73 34.86-22.7 51.84-34.64 68.83-48.42 135.21-100.42 202.73-150.63 69.01-51.32 135.24-105.18 200.55-161.11l4.16-3.56"></path>
        <path class="st1"
              d="M620.97 1534.72c-7.33-17.42-11.13-36.42-15.27-54.78-3.96-17.56-6.91-36.84-6.06-54.95 1.46-30.98 15.36-59.46 18.94-90.1 4.77-40.8-1.27-82.41-4.15-123.12-3.15-44.39-11.31-87.58-16.14-131.66-4.73-43.15-12.33-85.74-3.98-129.03 6.61-34.28 24.36-73.11 59.31-85.38 16.17-5.68 34.58-.93 50.62 3.17 17.56 4.48 36.05 5.69 54.06 2.31 36.69-6.89 71.68-28.26 98.71-53.32 28.02-25.96 57.58-41.78 97.25-38.29 38.57 3.4 74.97 21.04 103.52 46.81 29.99 27.07 53.76 57.9 88.12 80.16 32.63 21.14 68.05 38.32 106.78 44.02 38.35 5.65 70.78 13.98 101.32 39.14 29.3 24.14 51.62 56.38 62.84 92.7 12.38 40.11 22.38 78.43 50.14 111.25 10.29 12.17 22.2 23.54 36.46 30.93 18.02 9.34 36.61 7.18 56.08 5.53 30.62-2.59 80.8 9.79 93.29 42.46 2.88 8.61 11.93 22.52 19.53 28 12.55 9.05 30.07 3.3 42.6-2.71 36.42-17.48 64.69-49.76 98.48-71.69 15.98-10.37 32.88-19.66 50.38-27.22 16.72-7.23 35.01-8.39 51.07-16.61 34.84-17.81 66.98-42.3 98.52-65.25 34.42-25.06 68.24-50.95 102.43-76.31 66.51-49.34 134.3-97.17 198.09-150.05 25.55-21.18 50.89-42.62 76.17-64.12"></path>
        <path class="st1"
              d="M594.97 1508.03c-13.93-39.43-20.56-79.33-21.79-120.92 6.85-32.07 21-63.27 21.4-96.6.5-41-.74-82-4.96-122.8-4.28-41.33-10.19-82.32-15.01-123.8-4.61-39.7-11.07-80.11-2.84-119.78 6.15-29.63 19.76-64.82 47.36-80.68 34.28-19.7 73.13 2.32 109.63.26 39.77-2.24 74.5-22.82 104.66-46.39 36.92-28.86 68.77-44.79 99.18-42.87 35.89 2.27 73.27 15.53 101.77 37.11 33.24 25.16 57.68 59.55 92.03 83.82 28.82 20.36 61.79 36.94 96.04 45.87 37.78 9.85 74.77 9.61 107.97 32.86 30.49 21.35 56.86 50.03 72.24 84.21 17.29 38.42 21.55 79.74 45.93 115.24 18.82 27.4 46.42 54.46 81.48 55.8 17.71.68 37.68-4.13 54.95.91 17.89 5.22 36.37 11.28 51.57 23.26 14.49 11.42 19.09 29.18 30.44 42.99 11.86 14.42 29.94 12.68 46.11 6.81 38.53-13.97 68.04-47.75 102.56-68.97 17.08-10.5 34.96-19.81 53.52-27.41 16.9-6.91 35.14-7.46 51.66-14.66 35.89-15.63 69.08-41.86 100.78-64.49 34.06-24.31 67.29-49.78 100.98-74.6 68.44-50.42 138.47-98.99 204.29-152.86 26.38-21.59 52.45-43.55 78.7-65.3"></path>
        <path class="st1"
              d="M568.38 1479.45c-12.08-41.59-24.49-84.54-20.29-128.31 4.25-18.95 12.45-36.76 16.13-55.86 5.06-18.6 6.18-38.11 6.29-57.3.48-88.14-15.56-174.21-23.18-261.65-4.78-54.8-.13-136.19 57.58-164.16 18.92-9.17 38.64-4.81 58.07-.45 19.02 4.28 37.57 5.73 57.06 2.92 37-5.33 69.8-24.2 99.44-46.12 14.91-11.03 29.09-23.26 45.91-31.38 14.8-7.15 34.62-8.68 51.05-8.19 36.4 1.07 76.62 14.99 105.39 37.39 32.44 25.26 56.83 59.02 91.32 81.99 31.99 21.3 68.48 41.61 106.36 49.51 40.06 8.35 76.46 12.32 110.26 37.78 30.23 22.77 55.41 51.58 69.84 86.97 7.49 18.37 11.5 37.99 17.8 56.76 6.88 20.49 17.38 39.99 30.59 57.11 24.29 31.47 51.65 50.41 92.29 49.9 18.08-.23 35.28.47 52.72 5.78 18.49 5.63 32.02 15.59 47.36 26.63 16.02 19.05 24.67 52.61 54.97 52.49 34.44-.14 65.78-30.19 92.1-48.63 32.13-22.52 70.46-47.37 109.58-55.1 15.46-3.06 27.55-4 41.96-11.3 19.51-9.89 37.82-22.21 56.08-34.2 33.82-22.22 66.27-46.42 98.83-70.42 68.29-50.34 137.98-98.83 205.69-149.96 41.29-31.18 80.86-64.62 120.87-97.4"></path>
        <path class="st1"
              d="M541.73 1450.84c-11.51-38.03-22.68-78.63-20.56-118.74 1.84-34.9 21.42-65.62 23.36-100.77.51-41.51.7-82.62-2.16-124.09-2.9-42.16-10.21-83.8-14.13-125.64-3.91-41.66-7.25-81.56 2.72-122.66 8.32-34.33 31.78-71.85 68.95-79.35 25.66-4.2 52.19 6.2 75.95 9.14 11.41 1.41 22.94-.55 34.15-3.04 38.59-8.55 75.21-26.79 105.08-52.72 14.71-12.77 27.82-20.81 44.75-25.01 19.94-4.95 40.45-5.98 60.59-2.29 39.33 7.2 73.56 22.33 103.85 48.53 14.05 12.15 26.25 26.08 39.83 38.7 15.76 14.64 33.31 27.32 51.5 38.79 32.18 20.29 67.58 36.64 105.13 43.63 38.77 7.21 73.45 14.67 105.48 39.08 31.46 23.98 56.2 55.27 69.41 92.68 13.12 37.15 21.67 74.45 46.63 106.03 22.33 28.25 50.12 49.82 87.14 51.83 16.04.87 31.59-.74 47.34 3.04 17.68 4.24 35.13 10.71 50.1 21.2 14.76 10.34 23.67 23.52 32.22 39.06 8.14 14.79 20.16 25.35 37.75 25.93 37.03 1.21 71.02-30.36 99.68-49.67 31.75-21.39 73.3-45.58 112.1-50.22 14.57-1.74 25.91-2.95 39.33-9.68 16.45-8.24 32.05-18.06 47.59-27.87 33.59-21.21 65.81-44.51 97.88-67.94 69.86-51.04 140.8-100.58 210.64-151.66 45.44-33.23 88.67-69.36 132.61-104.52"></path>
        <path class="st1"
              d="M515.01 1422.2c-11.04-37.56-22.15-77.36-20.26-116.89.8-16.74 5.47-31.67 11.54-47.16 7.47-19.07 11.92-37.14 13.14-57.63 5.12-85.82-5.66-171.68-14.23-256.92-3.71-36.85-9.35-78.29 4.21-113.97 11.63-30.59 30.1-69.75 66.33-76.91 19.35-3.83 37.91.93 56.78 4.99 20.97 4.52 41.51 4.7 62.45-.03 40.26-9.1 73.14-27.91 107.04-50.58 16.53-11.05 30.79-21.13 50.62-25.54 20.48-4.55 41.83-2.63 62.27 1.2 39.63 7.42 72.31 25.58 102.66 51.56 13.87 11.88 26.1 25.92 39.63 38.32 15.43 14.14 33.13 25.52 51.02 36.29 31.91 19.23 66.4 35.83 103.44 41.99 41.61 6.93 78.78 17.25 112.21 44.16 32.84 27.12 57.74 60.03 69.88 101.15 12 40.64 26.45 78.4 56.84 109.06 12.24 12.35 25.77 23.97 42.12 30.43 20.03 7.92 41.27 6.08 62.3 7.51 32.42 4.74 75.93 18.31 93.39 48.99 13.05 22.93 26.79 47.17 58.06 44.3 36.19-3.32 66.44-29.09 96.22-47.4 32.87-20.22 72.74-42.17 111.66-46.98 16.08-1.98 28.39-2.72 43.41-9.84 17.26-8.18 33.91-18.24 50-28.49 35.98-22.91 70.61-47.68 105.16-72.67 69.97-50.61 141.31-99.3 211.25-149.95 43.54-31.53 85.12-65.71 127.34-98.97"></path>
        <path class="st1"
              d="M488.23 1393.53c-11.62-38.28-22.35-81.21-19.3-121.5 1.47-19.37 8.84-36.28 15.74-54.22 6.07-15.78 7.93-32.15 10.21-48.55 2.54-18.21 1.18-36.82.72-55.12.35-21.24.2-42.49-1.35-63.68-2.92-40-5.66-80-10.29-120.13-7.21-62.43-13.19-150.63 45.7-192.18 34.54-24.37 70.51-6.63 108.18-3.96 38.13 2.7 78.37-12.64 112.17-29.15 31.76-18.33 61.41-45.55 99.02-49.4 38.88-3.98 77.94 6.5 112.61 23.66 34.43 18.06 60.48 48.28 89.4 73.55 27.62 24.12 62.03 41.94 95.37 56.68 35.62 15.75 74.33 17.72 110.97 29.79 37.8 12.45 69.6 38.47 95.47 68.15 27.49 33.2 33.36 72.95 49.34 111.61 13.37 32.34 37.56 63.5 66.74 83.07 11.89 7.97 25.16 14.47 39.39 16.1 20.23 2.31 41.43 2 61.27 6.82 37.12 9.03 67.68 29.97 87.18 62.72 8.13 13.65 16.17 25.98 32.58 30 16.24 3.98 35.93.56 51.13-5.72 39.93-16.49 73.03-45.67 113.63-61.23 18.66-7.16 37.43-15.91 57.26-19.33 18.54-3.19 35.94-2.31 53.56-10.34 35.57-16.21 68.46-38.3 100.66-60.27 70.63-48.2 139.99-98.38 210.09-147.36 65.25-45.6 128.32-93.34 191.32-142"></path>
        <path class="st1"
              d="M461.37 1364.8c-11.51-38.38-21.42-79.39-18.53-119.76 1.32-18.51 7.08-34.77 14.43-51.66 7.85-18.05 11.77-37.35 13.17-56.96 4.38-88.41-5.81-174.58-12.39-262.47-2.73-36.43-2.09-73.88 11.37-108.31 13.85-35.44 42.63-67.17 83.26-68.01 19.78-.41 39.69 6.87 59.23 9.44 21.24 2.79 41.88-.67 62.51-5.91 18.89-4.8 37.21-11.59 54.94-19.66 18.76-8.55 34.16-22.19 52.32-31.41 17.52-8.9 35.2-16.48 54.94-17.94 21.47-1.59 42.42.82 63.29 5.99 39.85 9.88 74.65 29.98 104.26 58.28 30.62 29.27 61.71 53.71 99.26 73.57 35.73 18.89 72.77 31.32 112.67 37.84 75.64 12.36 141.71 69.62 164.67 142.71 12.62 40.19 26.54 75.86 56.63 106.54 13.22 13.48 28.93 25.45 46.23 33.17 18.94 8.45 38.77 7.57 58.94 10.06 35.12 4.35 70.15 18.15 95.4 43.72 5.81 5.88 11.03 12.32 15.61 19.2 4.63 6.96 7.58 16.02 13.39 21.99 14.62 15.03 32.01 17.66 52.32 16.28 42.05-6.04 76.56-35.13 113.91-53.17 18.65-9.01 37.94-16.46 57.66-22.81 18.65-6 36.07-7.45 55.4-8.99 35.86-2.84 72.26-30.11 101.8-48.89 37.44-23.8 73.12-50.06 109.54-75.36 69.71-48.42 140.7-95.17 209.75-144.53 38.83-27.76 76.3-57.39 114.43-86.07"></path>
        <path class="st1"
              d="M434.45 1336.01c-11.36-39.77-20.08-81.77-17.6-123.35 2.08-17.88 8.88-34.27 15.74-50.73 7.48-17.95 9.83-36 12.24-55.44 10.52-84.88-2.14-171.95-8.2-256.63-2.74-38.19-3.45-79.03 12.75-114.61 13.91-30.54 40.35-60.45 75.92-62.7 17.42-1.1 33.62 1.9 50.79 5.39 21.34 4.33 40.58 5.06 62.12 1.59 39.06-6.29 72.96-21.71 107.11-40.98 33.18-18.73 66.53-33.15 105.56-29.62 38.75 3.5 79.74 16.91 111.44 39.62 32.1 23 57.29 53.93 90.89 75.11 34.15 19.49 68.81 39.65 106.92 50.6 37.99 10.91 77.6 13.11 112.57 33.19 34.19 19.63 61.69 46.26 83.42 79.03 10.9 16.44 15.61 36.6 21.47 55.2 6.13 19.44 13.77 37.69 24.71 54.89 18.65 29.31 45.25 57.65 77.87 71.38 15.62 6.57 32.14 7.54 48.81 9.12 21.5 2.03 42.04 7.19 61.46 16.66 16.05 7.83 32.46 15.73 45.33 28.5 14.49 14.37 20.34 35.39 35.51 48.91 28.68 25.57 72.05 11.8 101.86-3.77 37.88-19.78 74.53-40.14 115.65-52.76 16.71-5.13 34.55-10.92 52.19-10.21 18.03.73 33.41-3.57 49.79-10.97 37.54-16.96 72.7-40.2 106.7-63.26 69.88-47.39 138.95-95.9 209.08-142.95 64.94-43.57 127.84-89.25 190.66-135.8"></path>
        <path class="st1"
              d="M407.92 1309.23c-12.37-40.29-18.63-81.98-17.22-124.03.48-14.29 6.22-28.84 11.61-41.98 7.32-17.85 12.56-34.61 15.2-53.34 11.88-84.18 4.12-169.52-2.14-253.82-4.6-61.99-5.38-149.3 61.01-181.35 35.6-17.19 73.17-.43 109.93 1.75 39.14 2.32 81.27-12.3 116.34-28.41 29.85-13.72 60.8-34.64 90.04-39.28 22.08-3.5 47.89-1.74 58.8-.14 21.55 3.16 43.08 8.85 63.13 17.41 41.05 17.54 69.34 50.63 103.69 77.62 15.45 12.14 32.31 22.48 49.69 31.61 8.49 4.46 17.08 8.71 25.64 13.02 7.2 3.62 43.35 17.81 50.43 20.21 9.16 3.11 18.58 5.2 28.03 7.24 21.47 4.64 43.09 8.78 63.88 16.02 35.67 12.42 68.45 36.67 93.03 65.06 12.63 14.58 23.42 30.85 31.01 48.63 9.02 21.15 13.84 43.84 22.9 65.01 17.25 35.7 43.65 65.08 76.41 87.2 33.06 20.48 71.69 13.9 106.97 26.62 36.6 13.2 67.24 31.99 87.97 65.63 8.85 14.37 17.76 27.08 34.21 33.27 18.42 6.51 38.14 5.51 56.71.17 41.13-11.81 76.89-37.45 117.01-52.24 18.54-6.83 37.52-12.57 56.87-16.64 18.14-3.82 36.71.02 54.53-3.96 37.41-8.36 73.62-33.44 105.7-53.53 73.63-46.11 143.97-97.8 216.52-145.63 73.57-48.51 145.28-98.69 216.89-150.03"></path>
        <path class="st1"
              d="M380.83 1280.3c-10.1-39.37-20.83-81.23-16.53-122.19 5.69-36.85 24.47-67.83 29.83-104.41 12.49-85.25 2.95-174.01-2.98-259.43-4.19-60.34 5.19-132.57 64.31-164.06 16.65-8.87 33.6-11 52.22-8.46 9.89 1.35 19.63 3.54 29.41 5.49 5.76 1.15 16.55 4.27 22.32 3.42 38.5 2.46 75.74-4.92 111.28-19.55 34.37-14.16 67.52-38.05 104.22-45.23 37.14-7.27 78.49.39 113.71 12.92 39.56 14.07 68.63 39.79 100.05 66.58 29.71 25.33 62.26 45.08 97.51 61.9 37.57 17.92 76.28 24.79 116.33 34.51 39.92 9.68 76.01 30.05 105.9 58.19 27.87 26.23 43.87 56.36 55.18 92.37 11.2 35.66 28.35 67.58 54.8 94.51 25.58 26.05 54.96 41.55 91.13 46.3 39.89 5.23 76.68 14.66 109.67 38.88 10.61 7.79 27.94 21.43 31.42 34.68 4.96 2.72 8.89 14.62 12.75 19.44 6.07 7.59 13.55 14 22.43 18.05 36.56 16.69 77.64-.63 110.82-16.7 38.85-18.82 77.59-35.93 120.14-44.59 17.61-3.58 33.99-4.11 51.83-3.62 6.49-1.74 13.37-1.34 20.08-3.42 9.22-2.85 18.21-6.44 27.01-10.39 75.61-33.92 142.36-86.54 210.99-132.23 50.86-33.86 102.34-66.81 153.82-99.71 50.23-32.1 98.15-67.45 146.94-101.66"></path>
        <path class="st1"
              d="M353.67 1251.28c-9.07-37.38-18.55-76.45-16.23-115.21 2.09-35.01 22-65.35 29.31-99.33 8.93-41.53 7.88-86.75 7.8-129.07-.08-42.42-2.72-84.58-5.29-126.86-4.01-65.96 2.54-156.64 77.89-180.66 39.54-12.61 81.01 8.76 121.34 6.19 39.91-2.55 78.38-13.64 114.38-30.83 32.05-15.3 61.55-32.45 98.19-33.91 35.73-1.42 75.54 6.26 108.29 20.75 39.3 16.17 65.41 45.22 98.5 70.26 33.32 25.2 70.9 44.95 109.48 60.83 39.7 16.34 82.75 19.08 122.78 33.93 38.51 14.28 74.6 39.68 100.9 71.31 12.15 14.6 21.2 31.36 28.23 48.95 7.24 18.1 11.26 37.7 19.84 55.18 16.18 32.95 40.81 62.61 71.12 83.46 30.29 20.83 62.38 23.34 97.41 30.39 36.23 7.28 74.64 26.26 99.57 53.98 11.53 12.82 18.43 28.96 29.75 41.69 12.48 14.04 31.69 19.66 49.93 20.74 40.82 2.42 78.69-18.49 114.26-35.82 34.3-17.22 75.8-26.91 113.71-31.62 16.54-2.06 32.78 2.68 49.2-1.39 19.18-4.76 37.54-14.06 55.06-23.01 73.57-37.56 140.09-88.01 209.3-132.78 47.73-30.87 95.91-61.01 144.07-91.19 47.9-30.02 93.83-63.05 140.36-95.1"></path>
        <path class="st1"
              d="M326.43 1222.15c-9.43-37.74-18.63-77.28-16.12-116.45 2.42-37.63 26.2-67.77 32.34-104.39 14.6-87.05 5.66-176.02 3.17-263.51-1.14-39.86.75-78 20.78-113.57 18.05-32.04 50.85-52.25 87.63-53.1 19.54-.45 38.97 5.39 58.08 8.74 20.96 3.67 44.17 2.52 65.09-.94 39.27-6.51 76.23-20.76 112.63-36.41 28.62-12.31 54.52-22.69 86.14-22.94 33.68-.26 67.37 7.51 98.24 20.74 36.78 15.76 66.39 40.43 96.97 65.6 31.43 25.87 69 45.93 106.43 61.73 36.95 15.6 76.49 21.86 115.04 32.08 40.95 10.86 75.44 33.67 106.56 61.81 13.97 15.23 27.48 29.47 36.69 48.26 8.76 17.87 12.92 37.62 20.49 56.01 15.2 36.93 39.04 68.23 70.41 92.97 32.17 25.36 67.67 28.16 106.14 37.1 36.83 8.56 74.81 24.71 101.21 52.74 19.54 20.75 27.28 50.2 56.54 61.25 37.21 14.05 75.47 1.25 110.26-12.97 40.12-16.39 78.73-33.34 121.76-40.9 17.2-3.02 34.98-5.47 52.42-3.42 18.75 2.2 35.54-3.02 52.85-10.02 77.23-31.23 144.75-83.41 214.2-128.4 50.06-32.43 100.88-63.9 151.95-94.7 55.93-33.74 109.46-70.79 163.88-106.87"></path>
        <path class="st1"
              d="M299.1 1192.9c-10.25-38.83-18.72-80.08-14.69-120.43 3.83-38.31 28.5-70.48 34.58-108.55 13.55-84.92 7.8-173.41 3.68-258.81-3.3-68.34 23.79-144.34 99.05-156.51 36.36-5.88 71.19 13.81 107.2 8.91 41.47-5.64 80.38-9.52 119.58-25.82 34.9-14.52 68.33-32.48 107-33.04 39.97-.57 83.81 9.12 120 26.18 38.76 18.27 67.62 49.08 102.42 73.22 33.96 23.55 73.52 41.92 112.39 55.73 37.78 13.42 78.03 17.67 115.66 31.35 39.05 14.19 71.48 39.68 100.14 69.15 27.72 25.02 33.81 67.12 47.85 99.79 15.77 34.48 42.04 64.28 72.86 86.13 32.35 22.93 68.34 25.99 105.77 34.67 36.16 8.43 76.66 27.93 101.59 56.02 23.17 26.11 34 57.28 71.53 65.64 34.54 7.7 69.56-3.14 101.18-16.44 41.14-17.31 81.97-31.7 126.16-39.28 19.94-3.42 37.81-2.13 57.72-.33 20.07.55 39.97-7.73 58-15.61 77.68-33.97 146.44-85.49 217.72-130.67 50.03-31.11 100.26-61.9 151.07-91.71 53.25-31.24 104.15-65.95 156.06-99.32"></path>
        <path class="st1"
              d="M271.68 1163.52c-11.55-36.94-18.69-82.84-13.65-121.48 2.05-15.72 7.14-30.72 13.68-45.1 7.2-15.84 12.91-29.71 17.44-46.49 10.71-39.63 11.53-81.19 12.96-121.96 1.48-42.33 2.45-85.3-.7-127.58-4.72-63.4 7.49-149.91 78.49-172.22 37.92-11.92 76.15 2.08 114.17 5.54 40.26 3.66 83.66-7.32 121.94-18.91 40.49-12.26 75.42-35.28 118.92-36.9 41.58-1.55 85.43 7.38 123.6 23.86 38.14 16.47 66.11 44.69 99.5 68.33 32 22.65 67.65 40.24 104.02 54.65 40.14 15.9 82.53 21.23 123.39 34.21 38.27 12.16 73.81 33.79 102.48 61.91 26.64 26.14 40.56 55.58 52.07 90.31 11.94 36.03 33.62 67.08 62.48 91.92 14.07 12.11 29.69 22.68 46.48 30.64 18.42 8.73 37.57 11.28 57.36 15.18 37.39 7.36 73.21 20.5 104.25 43 14.05 10.18 26.6 22.55 36 37.19 9.71 15.13 19.67 30.52 36.13 39.76 33.95 19.08 76.57 13.4 111.55.77 40.38-14.58 79.11-30.47 121.41-39.52 18.07-3.86 36.57-7.15 55.12-6.36 17 .72 31.92 4.62 48.88.87 38.33-8.47 75.45-29.6 109.13-48.97 37.64-21.64 73.66-45.95 110.2-69.36 59.9-38.37 121.14-74.89 182.89-110.23 56.55-32.37 111.03-67.59 166.26-102.13"></path>
        <path class="st1"
              d="M244.58 1136.16c-10.6-38.78-19.16-84.35-13.62-124.54 2.68-19.41 10.26-35.05 19.17-52.21 9.87-19 15.79-38.76 19.34-59.84 13.65-81.11 8.43-163.4 8.47-245.09.02-37.67 3.15-74.58 26.16-106 20.8-28.39 51.49-47.94 87.43-48.01 41.24-.08 80.73 13.6 122.29 10.04 38.46-3.29 77.19-12.59 113.02-26.75 35.93-14.2 69.12-26.39 108.58-25.56 40.99.86 84.33 10.88 121.32 28.68 34.56 16.64 61.08 43.47 92.57 64.58 33.52 22.48 69.67 41.02 107.54 54.99 37.1 13.68 75.65 19.54 113.55 30.16 38.8 10.87 75 31.51 104.79 58.63 13.28 12.1 25.63 26.13 35.58 41.13 12.17 18.35 17.33 41.39 24.75 61.88 14.06 36.59 40.85 67.42 71.58 91.25 30.56 23.7 62.31 31.71 99.49 39.18 40.49 8.13 72.56 27.2 107.42 47.83 31.82 22.37 41.59 64.03 79.05 79.44 36.43 14.98 76.76 7.36 112.45-5.49 41.54-14.96 81.91-29.59 125.82-36.2 18.8-2.83 37.82-5.43 56.77-2.84 20.2 2.75 37.21 2.32 56.76-4.35 77.99-26.59 145.61-75.59 215.01-118.63 57.87-35.89 116.66-70.5 176.25-103.46 56.9-31.48 111.71-65.91 167.3-99.61"></path>
        <path class="st1"
              d="M216.97 1106.49c-10.7-39.95-16.17-82.18-12.16-123.38 3.33-34.21 27.7-62.31 35.95-95.98 10.48-42.81 12.16-89.56 14-133.44 1.78-42.6 1.46-85.25.39-127.86-.89-35.61 7.02-76.11 29.51-104.47 20.93-26.39 49.96-42.4 83.77-44.42 20.6-1.23 40.64 3.49 60.71 7.46 22.29 4.41 44.31 5.3 66.95 3.62 40.27-3 80.85-13.47 118.87-26.91 31.61-11.17 63.23-24.06 97.25-22.87 34.55 1.2 69.18 6.35 102.09 17.12 37.85 12.39 68.14 33.38 99.23 57.63 33.02 25.76 69.45 45.64 107.95 61.96 39.01 16.54 78.26 25.97 119.39 35.46 38.6 8.91 75.38 23.89 106.85 48.34 30.85 23.96 56.61 49.28 70.21 87.03 13.37 37.11 28.02 69.62 55.84 98.42 25.29 26.18 56.79 47.18 92.25 56.39 39.38 10.23 76.56 16.09 112.98 35.53 16.2 8.65 31.61 18.91 45.13 31.38 15.75 14.54 24.12 33.84 38.5 49.18 26.32 28.08 74.34 37.03 110.67 26.88 18.8-.09 40.5-11.19 58.1-17.31 21.47-7.47 43.01-14.57 65.27-19.31 19.87-4.23 40.12-7.84 60.35-9.8 19.83-1.92 37.54 2.39 57.02 3.48 37.7 2.12 79.54-21.2 112.04-37.89 37.19-19.1 72.48-41.39 107.84-63.61 62.89-39.52 127.03-76.85 192.13-112.63 64.94-35.68 128.67-72.74 192.64-110.16"></path>
        <path class="st1"
              d="M189.27 1076.66c-8.26-38.27-16.96-78.54-12.14-117.87 4.56-37.19 28.52-65.91 37.6-100.93 20.67-79.75 17.44-165.75 17.64-247.36.16-64.14 17.3-126.72 83.81-149.98 35.33-12.36 68.88-2.14 104.28 3.36 42.37 6.58 85.37.21 126.99-8.37 39.75-8.2 76.78-27.74 116.63-34.32 38.79-6.41 79.8-.5 117.58 9.05 40.95 10.35 75.52 28.93 109.03 54.2 32.02 24.15 64.26 43.97 100.64 60.9 37.94 17.66 76.72 31.18 117.66 40.04 39.31 8.51 76.25 17.76 111.06 38.73 32.11 19.34 64.54 45.69 82.18 79.39 17.52 33.48 23.64 69.49 47.91 99.7 23.94 29.8 56.67 56.77 92.79 70.08 35.78 13.19 74.27 16.4 109.62 31.3 30.82 12.99 64.24 32.29 84.77 59.32 10.73 14.13 18.58 30.02 32.23 41.85 12.44 10.77 30.09 17.06 45.87 20.41 41.12 8.74 78.85-2.76 117.71-15.71 41.41-13.81 83.67-24.84 127.4-27.71 18.84-1.24 35.82.79 54.35 3.5 18.44 2.69 37.26-2.4 54.69-8.08 39.85-12.99 78.14-33.29 114.12-54.56 73.83-43.64 146.25-89.12 221.55-130.28 37.37-20.43 75.64-39.15 113.02-59.54 38.78-21.16 76.5-44.18 114.97-65.88"></path>
        <path class="st1"
              d="M161.47 1046.65c-8.09-37.4-15.9-76.59-12.01-115.01 3.78-37.43 28.17-65.43 39.36-100.4-.61.46 1.27-7.13 1.15-6.94 2.18-3.51 2.06-7.6 2.83-11.55 1.81-9.28 3.87-18.14 4.85-27.57 2.26-21.63 4.87-43.23 7.07-64.86 4.34-42.61 3.86-84.89 4.33-127.65.38-35.35 1.11-74.84 22.92-104.57 8.81-12 16.93-22.24 29.33-31.69 13.18-10.05 28.16-17.55 44.34-21.32 40.4-9.4 80.63 6.24 120.8 9.45 38.98 3.11 77.55-5.53 115.47-12.99 37.57-7.4 72.69-24.38 110.71-29.64 37.72-5.22 77.12-.29 113.72 9.34 38.37 10.09 72.45 24.63 104.78 47.83 15.72 11.29 30.34 23.62 46.88 33.77 18.83 11.56 38.59 21.01 58.49 30.54 36.47 17.46 75.14 30.95 114.69 39.49 41.19 8.9 81.4 17.95 118.35 39.16 32.82 18.83 66.27 45.63 84.74 79.19 8.28 15.04 13.78 31.31 19.46 47.45 6.36 18.08 16.09 34.1 27.95 49.15 23.14 29.37 53.34 54.24 87.35 69.98 32.65 15.1 69.72 18.67 103.63 30.21 35.92 12.22 75.9 33.06 100.37 62.86 10.94 14.45 19.67 31.03 33.1 43.41 12.76 11.76 28.61 19.23 45.41 23.17 41.36 10.09 79.06.35 118.6-11.76 38.71-11.85 78.21-21.86 118.56-26.23 18.07-1.96 36.47-2.8 54.57-.68 19.89 4.17 37.28 5.45 57.32.7 39.72-9.4 77.76-28.57 113.41-47.97 40.35-21.95 78.8-47.07 118.4-70.3 39.46-23.15 79.61-45.18 119.97-66.72 38.28-20.43 77.33-39.25 115.96-58.99 40.71-20.81 79.94-44.5 120.09-66.38"></path>
        <path class="st1"
              d="M133.57 1016.46c-7.86-38.04-15.88-78.85-9.86-117.73 5.75-37.09 31.07-66.08 40.79-101.71 21.45-78.61 18.79-161.48 22.12-242 1.58-38.31 8.27-73.08 32.57-103.67 26.16-28.91 66.91-44.1 105.45-41.15 37.58 2.88 72.2 13.68 110.18 12.98 37.64-.7 74.49-7.49 110.94-16.5 38.68-9.5 75.42-20.45 114.92-25.11 38.27-4.51 82.11 7.79 118.32 18.69 18.51 5.57 35.67 12.92 52.77 21.86 18.16 9.49 32.64 24.58 50.24 34.53 15.29 8.65 29.01 20.1 44.89 28.2 19.77 10.09 39.84 19.61 60.34 28.13 38.81 16.13 78.32 26.78 119.37 35.39 41.57 8.72 80.79 22.86 116 47.07 29.67 20.41 56.9 45.52 71.45 78.9 7.26 16.67 11.69 34.41 20.09 50.6 8.48 16.36 19.43 31.4 31.83 45 24.39 26.75 54.94 48.89 88.84 61.87 39.17 15 81.19 17.57 119.47 35.92 34.41 16.5 66.44 37.47 88.05 69.25 22.1 32.5 51.14 51.82 90.68 56.82 42.75 5.4 82.57-8.93 122.82-21.1 38.59-11.66 81.09-18.03 121.3-19.74 18.77-.8 35.59 3.38 53.83 6.06 17.74 1.31 34.41-1.73 51.38-6.85 39.27-11.85 76.43-29.77 112.31-49.45 38.58-21.16 75.61-44.95 113.79-66.79 39.79-22.77 80.35-43.99 120.79-65.57 37.26-19.14 75.44-36.33 112.87-55.1 41.03-20.58 80.91-43.39 121.53-64.75"></path>
        <path class="st1"
              d="M105.57 986.06c-8.62-38.14-15.41-78.7-9.56-117.77 2.76-18.45 9.62-33.39 19.15-49.3 10.82-18.07 19.05-36.01 25.14-56.24 18.86-83.46 21.75-168.83 24.76-254 2.44-35.98 18.24-73.19 48.26-94.53 25.92-23.4 68.15-28.97 101.24-24.9 19.25 2.37 38.05 7.35 57.2 10.37 21.72 3.42 44.12 3.4 66.04 2.15 37.86-2.16 75.31-10.04 111.95-19.54 37.59-9.75 74.49-20.48 113.69-18.86 40.35 1.66 81.47 10.37 119.52 23.82 39.08 13.81 69.33 39.56 103.74 61.51 35.73 22.79 75.58 39.9 115.39 54.18 41.14 14.75 83.93 20.82 125.77 32.72 38.48 10.94 74.22 29 105.73 53.69 14.4 11.28 27.04 23.69 38.37 38.06 13.38 16.99 19.61 37.42 26.75 57.51 15.4 37.16 40.54 67.12 72.13 91.83 32.36 25.31 67.84 38.67 107.62 47.55 39.72 8.86 77.57 22.44 111.97 44.61 15.09 9.72 29.12 21.25 40.63 35.08 12.11 15.48 22.51 32.73 37.47 45.73 27.62 24 72.77 31.49 108.2 26.72 41.6-5.6 80.25-22.57 121.7-28.94 39.46-6.07 81.86-14.7 121.51-6.21 37.79 8.1 73.29-2 108.61-15.85 40.41-15.85 78.71-36.82 116.17-58.61 69.78-40.84 140.14-79.7 212.45-115.92 34.85-17.46 70.85-32.52 105.91-49.56 38.68-18.8 76.39-39.52 114.77-58.9"></path>
        <path class="st1"
              d="M77.46 955.44c-9.26-36.05-13.95-77.73-8.25-114.65 2.38-15.4 7.49-30.25 14.77-44.01 7.92-14.98 19.83-27.92 23.61-44.85 11.75-39.41 19.39-78.43 24.48-119.4 5.18-41.71 6.41-83.24 8.76-125.19 1.87-33.31 6.88-66.6 28.02-93.67 19.82-25.38 50.23-40.36 81.64-45.34 41.78-6.62 81.75 9.33 123.03 12.8 41.19 3.46 84.43-2.22 124.86-9.95 37.85-7.24 74.49-20.33 112.95-24.17 18.78-1.88 37.81-1.36 56.59.4 20.76 1.95 34.18 5.4 61.37 10.07 28.44 4.87 76.97 25.55 110.78 48.76 34.21 23.48 68.24 42.72 106.22 59.4 37.4 16.43 76.1 28.25 115.88 37.51 40.31 9.38 80.43 17.4 117.43 36.77 33.34 17.46 65.95 39.98 88.14 70.91 11.2 15.61 17.24 33.69 23.51 51.62 6.63 18.96 16.83 35.98 29.7 51.36 26.25 31.39 58.74 53.97 94.86 72.33 16.92 8.6 37.08 12.04 55.43 16.39 21.4 5.07 42.34 10.87 62.74 19.17 34.15 13.9 67.06 33.69 92.88 60.2 22.68 26.64 36.91 53.75 71.75 66.73 76.3 28.45 151.09-9.7 226.82-20.68 20.38-2.6 40.87-4.95 61.44-5.08 9.62-.06 19.22.33 28.73 1.86 9.47 1.52 20.56 6.49 30.13 5.61 6.15-.56 13.52 1.36 20.1.78 9.56-.84 18.99-2.84 28.25-5.3 20.45-5.42 40.44-12.5 59.95-20.67 46.23-19.35 89.27-44.79 132.51-69.91 43.68-25.38 88.24-49.07 133.42-71.66 45.49-22.75 91.82-43.12 138.26-63.78 45.67-20.32 89.8-43.94 134.73-65.82"></path>
        <path class="st1"
              d="M49.56 926.8c-7.52-37.64-14.22-77.68-7.68-115.97 6.12-35.81 31.56-61.27 42.83-94.77 6.11-18.17 9.36-36.6 12.78-55.37 1.74-9.57 4.12-19 6.13-28.51 1.96-9.28.58-20.99 3.52-29.71 5.63-16.74 6.31-36.88 7.26-54.57 1.16-21.74 2.37-43.49 4.11-65.19 2.96-36.97 7.05-71.69 35.32-98.53 27.46-26.07 61.61-37.71 99.13-38.07 41.85-.41 82.15 15.17 124.23 15.6 41.04.43 83.12-3.71 123.34-11.91 35.6-7.25 69.76-18.2 106.3-20.46 42.9-2.65 85.79 4.49 127.08 15.73 38.47 10.47 72.67 27.62 105.3 50.39 32.44 22.63 67.58 40.31 104.39 54.74 39.68 15.55 78.9 28.06 120.63 36.75 40.42 8.42 79.5 18.34 115.84 38.56 16.8 9.35 33.09 19.8 47.94 32.06 6.87 5.67 13.42 11.73 19.46 18.29 3.64 3.95 14.59 13.6 15.76 18.5 1.98 8.23 9.81 16.92 13.16 25.04 3.57 8.63 6.55 17.48 9.84 26.22 7.88 20.93 19.77 38.51 34.71 55.07 24.8 27.49 57.23 51.68 91.63 65.77 35.84 14.68 75.23 19.8 111.61 32.97 32.21 11.67 69.36 31.05 93.7 55.68 26.29 26.6 40.78 58.8 77.16 74.12 78.65 33.13 158.69-8.99 237.78-17.24 19.69-2.06 39.51-3.76 59.33-3.86 21.36-.11 40.68 5.47 61.63 8.35 38.85 5.33 81.3-13.37 116.34-28.09 45.39-19.07 87.51-44.25 130.44-68.13 41.68-23.19 83.79-45.63 126.59-66.68 44.99-22.13 90.76-41.95 137.06-61.11 48.84-20.2 95.93-44.35 143.73-66.83"></path>
        <path class="st1"
              d="M21.22 895.72c-7.61-38.19-13.2-78.9-6.03-117.61 6.75-36.42 33.23-60.05 45.57-93.81C74.18 647.58 79.9 606.63 84.89 568c5.23-40.48 7.15-81.24 10.98-121.85 3.23-34.35 15.15-68.87 43.07-90.98 28.75-22.76 69.95-32.76 106.01-29.59 41.02 3.62 79.77 16.14 121.3 16.44 40.54.3 81.69-4.19 121.48-11.97 38.1-7.45 74.99-14.46 113.64-18.23 38.14 3.78 75.42 4.92 113.06 14.71 36.94 9.6 72.8 23.44 104.11 45.4 34.04 23.87 70.67 42.66 109.15 58.3 36.92 15.01 74.95 27.26 113.86 35.74 40.85 8.91 82.53 16.1 120.22 35.04 35.23 17.7 70.16 40.93 93.41 73.3 11.42 15.9 17.28 33.55 24.31 51.6 6.77 17.38 16.72 32.95 28.6 47.28 23.58 28.44 53.91 51.67 87.26 67.49 36.82 17.47 77.45 21.18 115.5 34.79 35.68 12.76 74 31.08 101.6 57.57 26.18 25.14 42.24 57.61 75.7 74.76 72.63 37.22 150.1 2.05 224.25-8.84 37.31-5.48 80.58-11.91 117.88-3.52 17.54 3.94 33 8.21 51.22 6.81 20.03-1.54 39.68-6.52 58.69-12.84 100.01-33.22 188.34-95.3 282.87-140.78 49.53-23.83 99.98-45.49 151.16-65.49 50.55-19.76 99.19-43.79 148.77-65.79"></path>
        <path class="st1"
              d="M-7.23 864.39c-6.57-36.07-12.49-74.11-6.71-110.7 2.31-14.6 6.81-29.08 15.05-41.47 8.51-12.79 18.12-25.73 25.2-39.76 17.84-35.3 25.26-76.68 31.92-115.3 6.91-40.11 11.8-80.97 14.53-121.58 2.19-32.58 9.59-66.7 32.56-91.28 20.47-21.91 50.62-34.63 79.95-38.47 41.05-5.38 78.91 8.19 118.95 13.89 40.86 5.81 83.35 3.87 124.25-.58 35.26-3.84 69.2-13.12 104.12-18.65 36.35-5.77 73.26-6.05 109.76-1.33 41.16 5.33 83.63 14.31 121.5 31.71 36.24 16.66 69.98 40.38 104.6 60.16 33.36 19.07 74.6 32.44 111.36 43.41 41.53 12.39 85.04 17.1 126.36 29.85 39.47 12.19 75.63 30.43 108.09 56.01 30.52 24.06 46.03 53.07 59.28 88.81 12.57 33.9 43.1 62.25 71.43 83.28 33.17 24.62 68.39 38.45 108.15 48.57 37.82 9.63 75 21.05 109.46 39.74 15.76 8.55 30.83 18.48 44.47 30.16 15.63 13.39 26.55 29.72 39.34 45.63 25.75 32.03 65.28 45.57 105.09 49.92 43.2 4.72 83.27-10.07 125.17-17.41 41.97-7.35 84.5-13.44 127.23-11.67 18.71.77 35.64 4.54 53.76 8.72 19.59 4.52 39.59 2.19 59.03-2.12 55.32-12.28 108.15-37.92 157.78-64.58 49.41-26.54 98.43-53.53 149.09-77.67 53.21-25.35 107.31-48.25 162.63-68.57 51.38-18.87 100.55-42.71 151.1-63.56"></path>
        <path class="st1"
              d="M-35.8 832.8c-6.19-37.56-12.41-77.57-4.85-115.4 3.5-17.5 11.15-31.69 21.44-46.12 5.37-7.52 10.96-14.89 15.99-22.65 2.53-3.89 4.91-7.87 7.05-11.99.49-.95 4.01-12.23 3.92-12.18 9.6-16.28 12.95-35.18 16.91-53.39 4.67-21.44 9.07-42.91 12.85-64.54 7.11-40.64 6.97-82.22 14.86-122.74 15.06-77.35 90.54-105.2 162.54-96.65 42.89 5.09 83.21 16.99 126.86 16.87 41.72-.11 83.81-3.19 124.8-10.74 41.39-7.62 82.28-15.5 124.58-13.22 37.98 2.05 75.95 7.69 112.58 18.01 39.11 11.02 73.53 29.13 108.08 50.15 33.82 20.58 68.52 35.35 105.21 49.96 39 15.53 79.15 26.38 120.29 34.46 41.7 8.2 82.9 17.89 120.92 37.57 32.58 16.87 67.78 40.45 87.7 71.95 8.82 13.94 13.89 29.74 20.25 44.86 7.76 18.45 18.23 34.37 31.93 48.98 26.77 28.56 60.3 53.65 96.62 68.56 38.78 15.92 80.87 20.73 119.9 36.03 36.42 14.27 73.38 33.74 101.52 61.33 12.77 14.11 23 30.68 36.28 44.25 13.11 13.4 29.42 23.24 46.86 29.93 37.82 14.5 77.75 16.43 117.4 9.59 44.27-7.64 86.7-18.07 131.66-21.93 38-3.26 78.01-5.18 114.55 7.66 38.36 8.32 79.12-4.82 115.05-17.62 49.66-17.69 95.98-42.65 142.25-67.62 46.03-24.84 93.09-47.53 140.77-69 47.82-21.54 96.62-39.87 146.05-57.3 49.25-17.37 96.59-39.38 145.17-58.44"></path>
        <path class="st1"
              d="M-64.49 800.93c-6.18-36.92-12.73-77.44-3.5-114.4 9.26-37.05 40.58-62.16 53.42-97.54 14.21-39.16 21.54-80.21 29.16-121.02 7.04-37.73 7.78-77.03 16.92-114.26 18.03-73.38 99.58-96.75 167.46-85.46 42.82 7.12 83.87 16.89 127.52 17.26 41.79.35 83.83-2.13 125.11-8.73 38.38-6.13 75.61-12.82 114.54-12.28 36.65.5 73.32 5.44 108.94 14.02 37.7 9.08 74.09 22.4 107.24 42.62 35.57 21.71 71.41 40.43 110.4 55.39 39.78 15.26 80.72 27.73 122.49 36.2 41.84 8.49 83.67 15.62 122.72 33.76 33.11 15.39 65.09 35.59 89.35 62.87-.08-.33 7.37 8.02 5.91 6.06 2.91 3.9 5.55 7.99 7.94 12.23 4.44 7.88 7.94 16.23 11.3 24.61 7.13 17.82 14.86 34.48 26.58 49.8 22.58 29.51 52.83 53.34 85.65 70.51 37.11 19.42 78.17 27.85 118.33 38.49 37.99 11.02 76.85 29.34 108.37 53.39 13.78 10.51 25.63 21.29 36.61 35.03 11.95 14.95 23.5 30.04 39.09 41.45 28.38 20.75 63.82 29.08 98.43 30.9 42.24 2.23 81.59-10.58 122.8-17.19 40.8-6.54 82.63-10.19 123.96-8.7 18.78.68 36.06 5.36 54.18 9.71 20.16 4.84 39.78 4.2 60.09.49 58.38-10.67 114.01-36.75 166.43-63.65 48.45-24.86 96.43-50.28 146.05-72.8 51.57-23.41 104.34-46.7 158.64-63.01 57.81-17.36 113.08-41.97 169.45-63.33"></path>
        <path class="st1"
              d="M-93.3 768.78c-5.91-37.52-10.63-77.21-2.45-114.77 7.63-35.02 39.12-56.32 53.22-87.35 15.96-35.1 21.39-73.52 30.74-110.62C-1.74 416.2-1.55 374.62 7.38 334.56c17.6-78.96 109.82-97 178.47-84.85 37.55 6.64 73.34 15.89 111.66 17.71 38.36 1.82 77.59.27 115.73-4.23 40.28-4.75 79.87-13.22 120.56-14.15 41.32-.94 82.26 5.08 122.57 13.75 40.63 8.74 78.95 22.06 115.1 42.71 35.06 20.03 69.2 38.32 107.14 52.67 39.95 15.12 81.12 28.11 123.04 36.5 19.23 3.85 38.59 7.06 57.73 11.39 9.85 2.23 19.63 4.79 29.31 7.68 7.99 2.39 51.95 17.88 78.74 34.93 15.88 10.1 31.6 20.74 45.14 33.85 10.66 10.32 20.28 21.98 27.1 35.21 9.95 19.29 14.51 39.82 27.04 58.08 21.48 31.3 57.21 57.75 90.35 75.37 34.92 18.57 71.58 26.7 109.63 36.96 38.75 10.46 75.43 26.95 109.46 48.18 15.7 9.8 30.6 20.93 42.8 34.95 13.79 15.85 24.97 34.12 41.64 47.24 29.33 23.09 69.52 33.41 106.18 35.77 41.74 2.69 82.16-9.84 123.1-15.92 42.95-6.38 85.88-8.9 129.27-7.48 18.84.62 34.86 5.54 53.06 9.58 19.22 4.27 38.41 4.68 57.86 1.74 56.35-8.5 110.9-32.99 161.56-58.1 51.61-25.58 102.34-52.42 154.91-76.01 53.1-23.82 107.66-44.82 163.29-61.91 57.96-17.8 114.19-39.66 171.07-60.54"></path>
        <path class="st1"
              d="M-122.24 736.32c-8.88-36.68-10.74-81-.49-117.39 5.13-18.22 18.26-30.77 29.14-45.79 12.27-16.94 24.02-32.23 31.14-52.07 7.24-19.16 12.28-39.01 17.22-58.86 5.14-20.63 11.84-40.85 15.07-61.9 5.39-35.08 7.18-75.14 22.23-107.73 27.85-60.32 100.09-71.76 159.11-63.75 43.9 5.96 85.95 17.92 130.44 20.04 40.95 1.95 82.01.88 122.81-3.09 36.95-3.6 73.27-10.18 110.41-11.3 42.72-1.28 85.35 4.74 127.1 13.33 39.88 8.2 78.33 20.43 113.99 40.34 34.45 19.24 67.84 37.03 104.92 50.98 39.52 14.87 80.13 27.98 121.51 36.58 42.11 8.74 84.67 14.66 125.11 29.95 34.56 13.07 68.4 31.09 95.75 56.22 12.4 11.39 23.23 24.45 30.33 39.85 8.65 18.77 13.6 39.02 27.2 55.23 11.88 12.63 22.12 25.54 35.43 36.88 15.03 12.81 31.1 24.41 48.23 34.26 36.35 20.9 76.48 29.81 116.63 40.33 38.8 10.17 74.2 26.53 108.75 46.58 31.46 18.25 52.37 43.93 75.47 70.76 52 60.38 145.23 54.46 215.18 41.08 43.2-8.27 87.18-12.77 131.16-13.22 19.56-.2 39.43.17 58.71 3.87 16.56 3.18 32.06 10.03 48.91 11.5 27.8 2.43 56.09-4.48 82.7-11.91 31.64-8.84 62.33-20.81 92.25-34.32 57.27-25.86 111.93-56.9 169.6-82.01 57.87-25.2 117.07-47.94 177.81-65.21 59-16.78 115.95-38.49 174.08-57.88"></path>
        <path class="st1"
              d="M-151.08 705.69c-5.82-36.24-10.73-75.25-1.52-111.37 4.24-16.64 12.29-28.91 23.65-41.5 13.49-14.96 25.36-28.93 33.05-46.8 16.49-38.34 30.35-78.02 37.73-119.19 1.52-8.47 4.38-14.53 5.45-23.13 1.22-9.81 2.75-19.58 4.55-29.3 3.58-19.33 8.31-38.42 13.34-57.42 23.55-68.08 115.9-75.68 175.63-65.59 42.24 7.14 82.54 18.76 125.62 21.13 42.01 2.31 84.31.93 126.2-2.64 38.13-3.26 76.74-11.51 115.12-9.72 40.32 1.88 79.68 5.44 119.38 13.4 38.82 7.79 79.82 17.6 114 38.4 34.28 20.25 70.65 36.88 107.9 50.86 39.43 14.8 80.07 27.06 121.27 35.84 42.12 8.98 84.23 15.2 125.11 29.14 35.57 12.13 70.82 31.16 99.5 55.52 14.44 12.27 26.58 28.36 34.44 45.6 7.4 16.24 12.46 32.41 23.02 47.04 45.2 62.57 118.63 91.96 190.8 109.74 19.89 4.9 39.01 11.11 58.38 17.67 8.98 3.04 17.29 7.44 25.82 11.55 8.26 3.98 18.52 12.1 27.4 13.91 5.97 1.22 15.27 8.17 20.3 11.67 8.06 5.59 16.3 10.72 23.76 17.13 15.27 13.14 27.03 29.11 40.23 44.19 55.55 63.48 146.58 61.79 222.54 47.96 44.14-8.04 87.94-12.22 132.84-12.2 18.73-.02 37.48.73 56.02 3.47 20.26 3 39.43 12.23 60.01 13.49 29.43 1.8 59.99-6.31 87.97-14.57 29.67-8.75 58.7-19.58 86.91-32.26 55.23-24.83 108.36-53.97 164.07-77.85 56.87-24.37 115.46-46.62 175.24-62.71 62.78-16.9 123.9-37.41 185.74-57.41"></path>
        <path class="st1"
              d="M-180.29 672.58c-5.25-34.89-10.42-72.56-1.53-107.3 9.44-36.89 44.1-53.54 60.53-86.02 18.55-36.67 29.19-78.61 38.99-118.32 8.55-34.67 13.72-71.39 25.63-105.09 22.06-62.4 102.28-71.14 158.75-65.26 37.54 3.9 73.43 16.41 110.77 21.18 39.44 5.04 79.19 6.56 118.91 5.15 77.34-2.76 152.62-15.66 230.03-5.7 42.05 5.41 84.52 13.56 124.71 27.27 37.47 12.78 70.4 35.42 106.53 51.33 37.18 16.37 76.64 29.33 115.72 40.18 40.78 11.33 82.32 17.52 123.68 26.14 40.2 8.38 79.47 21.53 114.79 42.81 27.78 16.74 66.94 39.96 75.49 74.22 29.24 74.1 102.46 122.17 176.93 142.98 38.97 10.89 77.97 19.23 115.29 35.37 34.01 14.71 72.5 33.83 97.04 62.43 7.82 9.11 15.21 17.4 22.91 26.65 5.92 7.11 12.58 13.6 19.83 19.35 5.48 4.34 21.87 10.44 24.88 16 2.49 4.61 18.28 8.11 23.14 9.88 8.94 3.25 18.02 6.1 27.24 8.42 19.91 5.02 40.49 7.56 61.03 6.45 17.42 2.49 38.33-2.77 55.65-5.4 22.34-3.4 44.41-7.04 66.81-9.95 42.98-5.59 86.78-6.58 129.9-1.97 29.28 3.13 55.62 16.95 85.41 15.83 35.43-1.33 68.9-11.52 102.56-21.81 64.15-19.61 123.08-53.37 183.87-81.13 66.95-30.57 136.72-57.38 207.77-76.77 32.64-8.9 65.8-15.85 98.36-25.23 34.67-10.49 69.05-21.92 103.73-32.39"></path>
        <path class="st1"
              d="M-209.64 639.13c-5.07-33.24-8.67-68.76-.44-101.81 7.75-31.11 29.63-46.19 49.05-69.18 25.43-30.11 37.07-73.16 48.01-110.25 10.82-36.69 18.72-74.11 27.91-111.21 20.3-81.97 129.32-82.9 195.69-69.8 41.87 8.26 81.77 18.6 124.51 21.98 41.43 3.28 83.02 3.43 124.5 1.23 36.92-1.96 73.45-7.53 110.58-7.42 41.88.13 82.16 7.53 123.51 12.53 38.3 6.24 76.61 16.66 112.04 32.56 35.99 16.17 69.65 35.98 107.01 49.24 40.88 14.51 82.24 28 124.65 37.29 42.1 9.23 84.99 14.28 126.53 26.12 38.92 11.1 77.46 28.58 109.95 52.98 26.96 20.25 40.67 47.37 53.61 77.57 12.59 29.39 44.91 54.06 70.46 71.52 33.35 22.8 70.07 38.47 109.16 48.32 76.13 19.18 156.8 42.16 210.7 103.18 12.73 14.42 24.47 30.4 40.33 41.62 16.65 11.78 35.47 20.07 54.95 25.91 39.8 11.93 80.3 14.27 121.35 8.21 41.63-6.15 82.51-13.26 124.67-14.57 40.89-1.27 81.9-2.42 121.55 9.11 30.78 8.95 57.61 11.49 89.51 6.19 33.47-5.56 65.3-16.36 97.16-27.53 64.22-22.52 123.94-56.36 186.65-82.63 63.55-26.61 129.34-50.18 196.53-65.74 33.08-7.66 66.06-14.62 98.7-24.06 29.93-8.66 59.63-18.36 89.8-26.14M673.85 1591.95c-13.4-37.77-27.05-81.77-22.72-122.29 2.04-19.06 13.32-35.9 15.38-54.85 1.82-16.7 3.21-32.99 2.86-50.01-2.84-40.56-3.67-82.94-10.18-122.85-2.8-21.76-6.3-43.42-9.71-65.09-3.33-21.24-6.07-44.51-10.2-65.56-3.51-17.91-4.58-39.34-4.8-56.78-.22-17.48 1.18-36 4.7-52.92 6.49-31.25 21.14-65.27 53.83-76.28 17.58-5.92 35.33-1.31 52.78 2.86 20.75 4.96 39.81 5.2 60.09-1.95 37.32-13.16 66.95-36.73 94.32-64.79 28.59-29.31 67.27-34.64 106.32-25.35 39.75 9.45 68.26 33.98 95.67 62.96 25.97 27.45 51.49 53.49 84.83 71.78 16.87 9.25 34.27 18.93 52.89 24.22 20.39 5.77 41.67 6.33 62.29 10.86 33.48 7.35 63.36 25.98 86.24 51.33 26.61 29.48 38.68 64.74 49.37 102.26 10.24 35.94 25.75 70.63 53.56 96.51 12.02 11.19 26.48 20.42 43.42 20.94 20.47.62 39.77-6.59 60.42-3.62 14.43 2.07 29.14 8.27 41.08 16.37 16.91 11.48 18.39 35.87 34.71 46.38 13.2 8.5 31.38-1.14 42.93-8.53 17.95-11.48 32.84-27.61 48.46-41.93 30.36-27.84 65.2-54.81 103.87-70.07 14.05-4.7 26.38-7.79 39.18-15.72 17.49-10.85 34.27-22.95 51-34.92 68.93-49.34 135.88-101.6 203.63-152.55 67.26-50.58 131.94-103.44 195.35-158.75 1.4-1.22 2.8-2.44 4.19-3.66"></path>
    </g>
</svg>



