<?xml version="1.0" standalone="no"?><!DOCTYPE svg PUBLIC "-//W3C//DTD SVG 1.1//EN" "http://www.w3.org/Graphics/SVG/1.1/DTD/svg11.dtd"><svg t="1641700180900" class="icon" viewBox="0 0 1066 1024" version="1.1" xmlns="http://www.w3.org/2000/svg" p-id="25006" xmlns:xlink="http://www.w3.org/1999/xlink" width="208.203125" height="200"><defs><style type="text/css"></style></defs><path d="M938.666667 381.44a55.893333 55.893333 0 0 0-2.56-11.52v-3.84a45.653333 45.653333 0 0 0-8.106667-11.946667l-256-256a45.653333 45.653333 0 0 0-11.946667-8.106666 13.653333 13.653333 0 0 0-3.84 0 37.546667 37.546667 0 0 0-14.08-4.693334H469.333333a128 128 0 0 0-128 128v42.666667H298.666667a128 128 0 0 0-128 128v426.666667a128 128 0 0 0 128 128h341.333333a128 128 0 0 0 128-128v-42.666667h42.666667a128 128 0 0 0 128-128V384v-2.56z m-256-150.613333L793.173333 341.333333H725.333333a42.666667 42.666667 0 0 1-42.666666-42.666666V230.826667zM682.666667 810.666667a42.666667 42.666667 0 0 1-42.666667 42.666666H298.666667a42.666667 42.666667 0 0 1-42.666667-42.666666V384a42.666667 42.666667 0 0 1 42.666667-42.666667h42.666666v298.666667a128 128 0 0 0 128 128h213.333334v42.666667z m170.666666-170.666667a42.666667 42.666667 0 0 1-42.666666 42.666667h-341.333334a42.666667 42.666667 0 0 1-42.666666-42.666667V213.333333a42.666667 42.666667 0 0 1 42.666666-42.666666h128v128a128 128 0 0 0 128 128h128v213.333333z" fill="#707070" p-id="25007"></path></svg>