<svg id="streampark" data-name="streampark" xmlns="http://www.w3.org/2000/svg" xmlns:xlink="http://www.w3.org/1999/xlink" viewBox="0 0 516.42 97.54"><defs><style>.cls-1{fill:#2d2d2d;stroke:#231815;stroke-miterlimit:10;stroke-width:0.5px;}.cls-2{fill:url(#linear-gradient);}.cls-3{fill:url(#linear-gradient-2);}.cls-4{fill:url(#linear-gradient-3);}.cls-5{fill:url(#streampark_2);}.cls-6{fill:url(#streampark_2-2);}.cls-7{fill:url(#streampark_2-3);}.cls-8{fill:url(#streampark_2-4);}.cls-9{fill:url(#streampark_2-5);}.cls-10{fill:url(#streampark_2-6);}.cls-11{fill:url(#streampark_2-7);}.cls-12{fill:url(#streampark_2-8);}.cls-13{fill:url(#streampark_2-9);}.cls-14{fill:url(#streampark_2-10);}.cls-15{fill:url(#streampark_2-11);}.cls-16{fill:url(#streampark_2-12);}.cls-17{fill:url(#streampark_2-13);}.cls-18{fill:url(#streampark_2-14);}.cls-19{fill:url(#streampark_2-15);}.cls-20{fill:url(#streampark_2-16);}.cls-21{fill:url(#streampark_2-17);}.cls-22{fill:url(#streampark_2-18);}.cls-23{fill:url(#streampark_2-19);}.cls-24{fill:url(#streampark_2-20);}.cls-25{fill:url(#streampark_2-21);}.cls-26{fill:url(#streampark_2-22);}.cls-27{fill:url(#streampark_2-23);}.cls-28{fill:url(#streampark_2-24);}.cls-29{fill:url(#streampark_2-25);}.cls-30{fill:url(#streampark_2-26);}.cls-31{fill:url(#streampark_2-27);}.cls-32{fill:url(#streampark_2-28);}.cls-33{fill:url(#streampark_2-29);}.cls-34{fill:url(#streampark_2-30);}.cls-35{fill:url(#streampark_2-31);}.cls-36{fill:url(#streampark_2-32);}.cls-37{fill:url(#streampark_2-33);}.cls-38{fill:url(#streampark_2-34);}.cls-39{fill:url(#streampark_2-35);}.cls-40{fill:url(#streampark_2-36);}.cls-41{fill:url(#streampark_2-37);}.cls-42{fill:url(#streampark_2-38);}.cls-43{fill:url(#streampark_2-39);}.cls-44{fill:url(#streampark_2-40);}.cls-45{fill:url(#streampark_2-41);}.cls-46{fill:url(#streampark_2-42);}.cls-47{fill:url(#streampark_2-43);}.cls-48{fill:url(#streampark_2-44);}.cls-49{fill:url(#streampark_2-45);}.cls-50{fill:url(#streampark_2-46);}.cls-51{fill:url(#streampark_2-47);}.cls-52{fill:url(#streampark_2-48);}.cls-53{fill:url(#streampark_2-49);}.cls-54{fill:url(#streampark_2-50);}.cls-55{fill:url(#streampark_2-51);}.cls-56{fill:url(#streampark_2-52);}.cls-57{fill:url(#streampark_2-53);}.cls-58{fill:url(#streampark_2-54);}.cls-59{fill:url(#streampark_2-55);}.cls-60{fill:url(#streampark_2-56);}.cls-61{fill:url(#streampark_2-57);}.cls-62{fill:url(#streampark_2-58);}.cls-63{fill:url(#streampark_2-59);}.cls-64{fill:url(#streampark_2-60);}.cls-65{fill:url(#streampark_2-61);}.cls-66{fill:url(#streampark_2-62);}</style><linearGradient id="linear-gradient" x1="-1.31" y1="66.42" x2="162.45" y2="66.42" gradientTransform="matrix(1, 0, 0, -1, 0, 80.12)" gradientUnits="userSpaceOnUse"><stop offset="0" stop-color="#1fd3ff"/><stop offset="1" stop-color="#a43efa"/></linearGradient><linearGradient id="linear-gradient-2" x1="-1.31" y1="64.89" x2="162.45" y2="64.89" xlink:href="#linear-gradient"/><linearGradient id="linear-gradient-3" x1="-1.31" y1="67.24" x2="162.45" y2="67.24" xlink:href="#linear-gradient"/><linearGradient id="streampark_2" x1="57.15" y1="87.03" x2="107.62" y2="16" gradientTransform="matrix(1, 0, 0, -1, 0, 80.12)" gradientUnits="userSpaceOnUse"><stop offset="0" stop-color="#1fd3ff"/><stop offset="0.78" stop-color="#a43efa"/><stop offset="1" stop-color="#09f"/></linearGradient><linearGradient id="streampark_2-2" x1="62.79" y1="91.04" x2="113.27" y2="20.01" xlink:href="#streampark_2"/><linearGradient id="streampark_2-3" x1="23.7" y1="63.26" x2="74.17" y2="-7.77" xlink:href="#streampark_2"/><linearGradient id="streampark_2-4" x1="54.33" y1="85.03" x2="104.81" y2="14" xlink:href="#streampark_2"/><linearGradient id="streampark_2-5" x1="53.15" y1="84.19" x2="103.63" y2="13.16" xlink:href="#streampark_2"/><linearGradient id="streampark_2-6" x1="72.83" y1="98.18" x2="123.31" y2="27.15" xlink:href="#streampark_2"/><linearGradient id="streampark_2-7" x1="41.82" y1="76.14" x2="92.3" y2="5.11" xlink:href="#streampark_2"/><linearGradient id="streampark_2-8" x1="23.39" y1="63.05" x2="73.87" y2="-7.98" xlink:href="#streampark_2"/><linearGradient id="streampark_2-9" x1="84.99" y1="106.82" x2="135.47" y2="35.79" xlink:href="#streampark_2"/><linearGradient id="streampark_2-10" x1="-0.32" y1="46.2" x2="50.16" y2="-24.83" xlink:href="#streampark_2"/><linearGradient id="streampark_2-11" x1="26.05" y1="64.93" x2="76.53" y2="-6.1" xlink:href="#streampark_2"/><linearGradient id="streampark_2-12" x1="-5.79" y1="42.31" x2="44.69" y2="-28.72" xlink:href="#streampark_2"/><linearGradient id="streampark_2-13" x1="30.65" y1="68.2" x2="81.13" y2="-2.83" xlink:href="#streampark_2"/><linearGradient id="streampark_2-14" x1="6.08" y1="50.74" x2="56.56" y2="-20.29" xlink:href="#streampark_2"/><linearGradient id="streampark_2-15" x1="36.27" y1="72.19" x2="86.74" y2="1.16" xlink:href="#streampark_2"/><linearGradient id="streampark_2-16" x1="9.52" y1="53.19" x2="60" y2="-17.84" xlink:href="#streampark_2"/><linearGradient id="streampark_2-17" x1="20.87" y1="61.25" x2="71.35" y2="-9.78" xlink:href="#streampark_2"/><linearGradient id="streampark_2-18" x1="14.09" y1="56.43" x2="64.57" y2="-14.6" xlink:href="#streampark_2"/><linearGradient id="streampark_2-19" x1="22.78" y1="62.61" x2="73.26" y2="-8.42" xlink:href="#streampark_2"/><linearGradient id="streampark_2-20" x1="15.5" y1="57.44" x2="65.98" y2="-13.59" xlink:href="#streampark_2"/><linearGradient id="streampark_2-21" x1="13.89" y1="56.29" x2="64.37" y2="-14.74" xlink:href="#streampark_2"/><linearGradient id="streampark_2-22" x1="-1.29" y1="45.51" x2="49.19" y2="-25.52" xlink:href="#streampark_2"/><linearGradient id="streampark_2-23" x1="5.98" y1="50.67" x2="56.45" y2="-20.36" xlink:href="#streampark_2"/><linearGradient id="streampark_2-24" x1="23.46" y1="63.09" x2="73.94" y2="-7.94" xlink:href="#streampark_2"/><linearGradient id="streampark_2-25" x1="18.35" y1="59.46" x2="68.83" y2="-11.57" xlink:href="#streampark_2"/><linearGradient id="streampark_2-26" x1="26.35" y1="65.14" x2="76.82" y2="-5.89" xlink:href="#streampark_2"/><linearGradient id="streampark_2-27" x1="19.09" y1="59.99" x2="69.57" y2="-11.04" xlink:href="#streampark_2"/><linearGradient id="streampark_2-28" x1="-0.89" y1="45.79" x2="49.59" y2="-25.24" xlink:href="#streampark_2"/><linearGradient id="streampark_2-29" x1="-0.99" y1="45.71" x2="49.49" y2="-25.32" xlink:href="#streampark_2"/><linearGradient id="streampark_2-30" x1="6.83" y1="51.27" x2="57.3" y2="-19.76" xlink:href="#streampark_2"/><linearGradient id="streampark_2-31" x1="11.39" y1="54.52" x2="61.87" y2="-16.51" xlink:href="#streampark_2"/><linearGradient id="streampark_2-32" x1="19.97" y1="60.61" x2="70.45" y2="-10.42" xlink:href="#streampark_2"/><linearGradient id="streampark_2-33" x1="12.93" y1="55.61" x2="63.41" y2="-15.42" xlink:href="#streampark_2"/><linearGradient id="streampark_2-34" x1="-3.43" y1="43.98" x2="47.04" y2="-27.05" xlink:href="#streampark_2"/><linearGradient id="streampark_2-35" x1="1.13" y1="47.22" x2="51.61" y2="-23.81" xlink:href="#streampark_2"/><linearGradient id="streampark_2-36" x1="-12.1" y1="37.82" x2="38.37" y2="-33.21" xlink:href="#streampark_2"/><linearGradient id="streampark_2-37" x1="-13.39" y1="36.9" x2="37.09" y2="-34.13" xlink:href="#streampark_2"/><linearGradient id="streampark_2-38" x1="25.57" y1="64.59" x2="76.04" y2="-6.44" xlink:href="#streampark_2"/><linearGradient id="streampark_2-39" x1="34.57" y1="70.99" x2="85.04" y2="-0.04" xlink:href="#streampark_2"/><linearGradient id="streampark_2-40" x1="64.18" y1="92.03" x2="114.65" y2="21" xlink:href="#streampark_2"/><linearGradient id="streampark_2-41" x1="83.08" y1="105.46" x2="133.56" y2="34.43" xlink:href="#streampark_2"/><linearGradient id="streampark_2-42" x1="97.94" y1="116.03" x2="148.42" y2="44.99" xlink:href="#streampark_2"/><linearGradient id="streampark_2-43" x1="83.27" y1="105.6" x2="133.75" y2="34.57" xlink:href="#streampark_2"/><linearGradient id="streampark_2-44" x1="90.93" y1="111.04" x2="141.41" y2="40.01" xlink:href="#streampark_2"/><linearGradient id="streampark_2-45" x1="78.5" y1="102.21" x2="128.98" y2="31.18" xlink:href="#streampark_2"/><linearGradient id="streampark_2-46" x1="87.48" y1="108.59" x2="137.96" y2="37.56" xlink:href="#streampark_2"/><linearGradient id="streampark_2-47" x1="83.95" y1="106.08" x2="134.43" y2="35.05" xlink:href="#streampark_2"/><linearGradient id="streampark_2-48" x1="51.01" y1="82.67" x2="101.48" y2="11.64" xlink:href="#streampark_2"/><linearGradient id="streampark_2-49" x1="80.25" y1="103.45" x2="130.72" y2="32.42" xlink:href="#streampark_2"/><linearGradient id="streampark_2-50" x1="57.49" y1="87.28" x2="107.97" y2="16.25" xlink:href="#streampark_2"/><linearGradient id="streampark_2-51" x1="61.38" y1="90.04" x2="111.86" y2="19.01" xlink:href="#streampark_2"/><linearGradient id="streampark_2-52" x1="67.04" y1="94.06" x2="117.52" y2="23.03" xlink:href="#streampark_2"/><linearGradient id="streampark_2-53" x1="71.14" y1="96.98" x2="121.62" y2="25.94" xlink:href="#streampark_2"/><linearGradient id="streampark_2-54" x1="91.19" y1="111.22" x2="141.67" y2="40.19" xlink:href="#streampark_2"/><linearGradient id="streampark_2-55" x1="93.6" y1="115.28" x2="144.08" y2="44.25" xlink:href="#streampark_2"/><linearGradient id="streampark_2-56" x1="103.18" y1="115.28" x2="153.66" y2="44.25" xlink:href="#streampark_2"/><linearGradient id="streampark_2-57" x1="96.5" y1="115" x2="146.98" y2="43.97" xlink:href="#streampark_2"/><linearGradient id="streampark_2-58" x1="96.52" y1="115.01" x2="147" y2="43.98" xlink:href="#streampark_2"/><linearGradient id="streampark_2-59" x1="105.27" y1="121.23" x2="155.75" y2="50.2" xlink:href="#streampark_2"/><linearGradient id="streampark_2-60" x1="104.42" y1="120.63" x2="154.9" y2="49.6" xlink:href="#streampark_2"/><linearGradient id="streampark_2-61" x1="94.11" y1="113.3" x2="144.59" y2="42.27" xlink:href="#streampark_2"/><linearGradient id="streampark_2-62" x1="89.83" y1="110.26" x2="140.31" y2="39.23" xlink:href="#streampark_2"/></defs><path class="cls-1" d="M212,61.6a11.36,11.36,0,0,1-1.06,4.95,12.4,12.4,0,0,1-2.83,3.86A12.75,12.75,0,0,1,204,72.92a13.07,13.07,0,0,1-4.72.88,17.63,17.63,0,0,1-4.09-.5,11.54,11.54,0,0,1-3.95-1.71,10.5,10.5,0,0,1-3.07-3.24,11.22,11.22,0,0,1-1.5-5.16h1.77a10.79,10.79,0,0,0,1.68,4.92A9,9,0,0,0,193,70.83a9.15,9.15,0,0,0,3.3,1.14,21.74,21.74,0,0,0,2.95.24,11.5,11.5,0,0,0,4-.74,11,11,0,0,0,3.51-2.09,10.46,10.46,0,0,0,2.47-3.27,10.69,10.69,0,0,0-.2-9.19,9.92,9.92,0,0,0-2.86-3.1,13.57,13.57,0,0,0-3.63-1.77c-1.27-.39-2.44-.72-3.5-1s-2.08-.56-3.39-1a14.38,14.38,0,0,1-3.75-1.8,10.3,10.3,0,0,1-3-3.15,9.69,9.69,0,0,1-1.3-5v-.18a11.09,11.09,0,0,1,1-4.74A10.66,10.66,0,0,1,195,29.45a13.84,13.84,0,0,1,4.51-.73,11.21,11.21,0,0,1,3.92.73A10,10,0,0,1,207,31.87a12.34,12.34,0,0,1,2.68,4.42,19.25,19.25,0,0,1,1,6.75H209a22.31,22.31,0,0,0-.51-4.84,12,12,0,0,0-1.65-4.06,8.39,8.39,0,0,0-3-2.8,9,9,0,0,0-4.48-1,10.9,10.9,0,0,0-3.89.68,9.6,9.6,0,0,0-3.18,1.91,8.65,8.65,0,0,0-2.12,3,9.48,9.48,0,0,0-.77,3.89A7.86,7.86,0,0,0,193,46.87a14.52,14.52,0,0,0,3.78,1.8c1.41.45,2.86.87,4.36,1.26l1.53.39a16.67,16.67,0,0,1,2.21.76,15.1,15.1,0,0,1,2.48,1.33,10.09,10.09,0,0,1,2.29,2.06,9.9,9.9,0,0,1,1.68,3A11.76,11.76,0,0,1,212,61.6Z"/><path class="cls-1" d="M199.32,74.68a18.31,18.31,0,0,1-4.3-.53,12.42,12.42,0,0,1-4.23-1.83,11.45,11.45,0,0,1-3.33-3.51,12.26,12.26,0,0,1-1.63-5.55l-.07-.95h3.49l.1.77a10.34,10.34,0,0,0,1.52,4.53,8,8,0,0,0,5.56,3.49,21.6,21.6,0,0,0,2.83.23,10.65,10.65,0,0,0,3.73-.68,10.29,10.29,0,0,0,3.24-1.93,9.84,9.84,0,0,0,2.26-3,9.8,9.8,0,0,0-.17-8.35,9.05,9.05,0,0,0-2.6-2.82,12.31,12.31,0,0,0-3.38-1.65c-1.27-.39-2.43-.72-3.47-1s-2.1-.57-3.43-1a15.3,15.3,0,0,1-4-1.91,11,11,0,0,1-3.27-3.41,10.68,10.68,0,0,1-1.43-5.49,12.15,12.15,0,0,1,1.06-5.31,11.5,11.5,0,0,1,2.8-3.82,11.89,11.89,0,0,1,4.07-2.36,13.19,13.19,0,0,1,9,0,10.79,10.79,0,0,1,3.95,2.62A13.44,13.44,0,0,1,210.55,36,20.37,20.37,0,0,1,211.63,43v.88h-3.52V43a21.75,21.75,0,0,0-.48-4.65,11.36,11.36,0,0,0-1.53-3.77,7.7,7.7,0,0,0-2.68-2.52,8.21,8.21,0,0,0-4-.91,10.32,10.32,0,0,0-3.58.62,8.83,8.83,0,0,0-2.9,1.74,7.93,7.93,0,0,0-1.91,2.7,8.92,8.92,0,0,0-.69,3.55,7,7,0,0,0,3.21,6.34,13.71,13.71,0,0,0,3.55,1.69c1.39.44,2.83.86,4.31,1.25.34.08.86.2,1.54.39a17.94,17.94,0,0,1,2.32.8,15.91,15.91,0,0,1,2.62,1.4,11,11,0,0,1,2.49,2.24,10.8,10.8,0,0,1,1.83,3.26,13,13,0,0,1,.7,4.43,12.37,12.37,0,0,1-1.14,5.33,13.31,13.31,0,0,1-3,4.13,13.78,13.78,0,0,1-4.35,2.68A14.1,14.1,0,0,1,199.32,74.68ZM187.68,64.07A9.62,9.62,0,0,0,189,67.88l.15.23a11.83,11.83,0,0,1-1.39-4Zm17.61-11.84a13.84,13.84,0,0,1,1.42.87,10.72,10.72,0,0,1,3.12,3.36,10.42,10.42,0,0,1,1.27,5.38v.24c0-.16,0-.32,0-.48a11.23,11.23,0,0,0-.59-3.82A9.22,9.22,0,0,0,209,55a9.39,9.39,0,0,0-2.11-1.89A14.45,14.45,0,0,0,205.29,52.23ZM188.64,38.28a10.8,10.8,0,0,0-.11,1.63,9.19,9.19,0,0,0,1.16,4.75,9.54,9.54,0,0,0,2.75,2.89l.26.17-.18-.12a9.37,9.37,0,0,1-2.89-3.09,9.27,9.27,0,0,1-1.09-4.71A10.78,10.78,0,0,1,188.64,38.28Zm21.21,3.88h0a20.34,20.34,0,0,0-.44-3.79A23.13,23.13,0,0,1,209.85,42.16Z"/><path class="cls-1" d="M224.55,43.33V73h-1.66V43.33H216V41.8h6.89V29.42h1.66V41.8h8v1.53Z"/><polygon class="cls-1" points="225.43 73.91 222.01 73.91 222.01 44.21 215.12 44.21 215.12 40.92 222.01 40.92 222.01 28.54 225.43 28.54 225.43 40.92 233.44 40.92 233.44 44.21 225.43 44.21 225.43 73.91"/><path class="cls-1" d="M253.42,42.62h-11V73h-1.65l.06-31.95q11.61,0,12.61-.06Z"/><path class="cls-1" d="M243.28,73.91h-3.41l.06-33.7h.88c7.69,0,11.91,0,12.56-.06l.93,0v3.41h-11Z"/><path class="cls-1" d="M290.08,57.59H259a14.48,14.48,0,0,0,1.51,6.6,14.3,14.3,0,0,0,3.63,4.57,14.45,14.45,0,0,0,4.78,2.65,15.68,15.68,0,0,0,4.9.86,15.16,15.16,0,0,0,7.91-2.12A13.75,13.75,0,0,0,287.11,64H289a16,16,0,0,1-2.72,4.33,15.75,15.75,0,0,1-3.62,3.06,15.3,15.3,0,0,1-4.24,1.8,18.4,18.4,0,0,1-4.62.59,16.7,16.7,0,0,1-6.6-1.27A16.17,16.17,0,0,1,262,69.09a15.74,15.74,0,0,1-3.41-5.16,17.43,17.43,0,0,1,0-13,16.05,16.05,0,0,1,3.47-5.22,15.73,15.73,0,0,1,5.24-3.45,17.37,17.37,0,0,1,12.5-.15,16.21,16.21,0,0,1,5.14,3.13,15.33,15.33,0,0,1,3.65,5,17,17,0,0,1,1.56,6.51Zm-1.59-1.53a12.4,12.4,0,0,0-1.39-5.27,15.59,15.59,0,0,0-3.25-4.28,15.18,15.18,0,0,0-4.54-2.88A13.74,13.74,0,0,0,274,42.56a15.88,15.88,0,0,0-5.67,1,14.14,14.14,0,0,0-4.66,2.83,14.66,14.66,0,0,0-3.25,4.3A13.71,13.71,0,0,0,259,56.06Z"/><path class="cls-1" d="M273.75,74.68a17.63,17.63,0,0,1-6.94-1.34,16.93,16.93,0,0,1-5.47-3.63,16.55,16.55,0,0,1-3.6-5.45,18.29,18.29,0,0,1,0-13.67,16.93,16.93,0,0,1,3.66-5.49A16.59,16.59,0,0,1,267,41.46a18.28,18.28,0,0,1,13.15-.16,17.15,17.15,0,0,1,5.42,3.3,16.36,16.36,0,0,1,3.86,5.22A17.87,17.87,0,0,1,291,56.67l-.11,1.8h-31a13,13,0,0,0,1.37,5.32,13.55,13.55,0,0,0,3.41,4.29,14.6,14.6,0,0,0,16.58,1.31,13,13,0,0,0,5.08-5.75l.24-.5h3.72l-.53,1.22a16.85,16.85,0,0,1-6.68,7.8,16.45,16.45,0,0,1-4.48,1.91A19.69,19.69,0,0,1,273.75,74.68ZM260,55.18h27.55a11.36,11.36,0,0,0-1.22-4,14.67,14.67,0,0,0-3.06-4A14.49,14.49,0,0,0,279,44.44a14.17,14.17,0,0,0-10.31,0,13.54,13.54,0,0,0-7.43,6.7A12.7,12.7,0,0,0,260,55.18Z"/><path class="cls-1" d="M330,73V65.26h-.12a15.47,15.47,0,0,1-5.77,6.27,16.88,16.88,0,0,1-20.81-2.77A15.87,15.87,0,0,1,300,63.55a17.07,17.07,0,0,1-1.12-6.13,16.8,16.8,0,0,1,1.15-6.19,15.81,15.81,0,0,1,8.49-8.84,16.55,16.55,0,0,1,6.8-1.36h16.27V73Zm0-30.48H315.36a15,15,0,0,0-5.74,1.1,14.69,14.69,0,0,0-4.72,3,13.91,13.91,0,0,0-3.18,4.69,15.55,15.55,0,0,0-1.15,6,16.41,16.41,0,0,0,.91,5.3,14.14,14.14,0,0,0,2.78,4.77,13.78,13.78,0,0,0,4.68,3.45,15.34,15.34,0,0,0,6.6,1.33,14.49,14.49,0,0,0,5.92-1.18,14.17,14.17,0,0,0,7.64-8Q330.15,60.43,330,42.56Z"/><path class="cls-1" d="M315.36,74.68a17.48,17.48,0,0,1-7.25-1.46,17.11,17.11,0,0,1-5.47-3.86,16.59,16.59,0,0,1-3.42-5.5A18.06,18.06,0,0,1,298,57.42a17.83,17.83,0,0,1,1.21-6.51,17,17,0,0,1,3.48-5.5,17.16,17.16,0,0,1,5.47-3.83,17.47,17.47,0,0,1,7.16-1.43h17.15V73.91H329.1V68.14a16.11,16.11,0,0,1-4.56,4.14A17.3,17.3,0,0,1,315.36,74.68Zm0-31.24a14.27,14.27,0,0,0-5.41,1,14.05,14.05,0,0,0-4.44,2.86,13,13,0,0,0-3,4.39,14.8,14.8,0,0,0-1.08,5.7,15.54,15.54,0,0,0,.86,5,13.41,13.41,0,0,0,2.61,4.47,13.25,13.25,0,0,0,4.39,3.24,14.7,14.7,0,0,0,6.23,1.24,13.65,13.65,0,0,0,5.57-1.11,13.18,13.18,0,0,0,7.16-7.47c.45-1.13,1-5.43.84-19.37Zm14.16,20.93,1.23.06V56.16c-.19,4.92-.54,6.54-.84,7.29C329.79,63.77,329.66,64.07,329.52,64.37Z"/><path class="cls-1" d="M387.27,73V55.53a22.91,22.91,0,0,0-.71-5.89,9.6,9.6,0,0,0-2.48-4.42c-1.69-1.77-4.12-2.66-7.31-2.66a12.34,12.34,0,0,0-4.33.86,8.4,8.4,0,0,0-3.74,2.74,14.79,14.79,0,0,0-1.24,1.89,8.29,8.29,0,0,0-.73,1.94,13.52,13.52,0,0,0-.36,2.39q-.09,1.32-.09,3.15V73h-1.65V55.53a23.05,23.05,0,0,0-.53-5.66,10.36,10.36,0,0,0-1.71-3.59,8.9,8.9,0,0,0-3.56-2.74,11.92,11.92,0,0,0-4.86-1H343.65V73H342V41h12.14a13.63,13.63,0,0,1,5.19,1,10.76,10.76,0,0,1,4,2.86,14.44,14.44,0,0,1,1.21,1.68,8,8,0,0,1,.85,2h.12a17.2,17.2,0,0,1,.7-1.62,8.53,8.53,0,0,1,1.48-2,11.31,11.31,0,0,1,4-2.83,13.1,13.1,0,0,1,5-1,13.67,13.67,0,0,1,5,.83,10.31,10.31,0,0,1,3.59,2.3A10.42,10.42,0,0,1,388.09,49a24.23,24.23,0,0,1,.83,6.54V73Z"/><path class="cls-1" d="M389.79,73.91h-3.41V55.53a22,22,0,0,0-.67-5.66,8.83,8.83,0,0,0-2.25-4c-1.52-1.59-3.76-2.4-6.69-2.4a11.37,11.37,0,0,0-4,.81,7.47,7.47,0,0,0-3.35,2.45,12.9,12.9,0,0,0-1.16,1.76,7.55,7.55,0,0,0-.66,1.74,11.07,11.07,0,0,0-.32,2.23c-.07.88-.09,1.91-.09,3.1V73.91h-3.41V55.53a22.18,22.18,0,0,0-.51-5.43,9.75,9.75,0,0,0-1.56-3.3,8.14,8.14,0,0,0-3.21-2.46,11.24,11.24,0,0,0-4.51-.9h-9.44V73.91h-3.41V40.15h13a14.39,14.39,0,0,1,5.52,1,11.45,11.45,0,0,1,4.34,3.1,14.91,14.91,0,0,1,1.3,1.79c.06.11.12.22.19.33a9.42,9.42,0,0,1,1.57-2.15,12.21,12.21,0,0,1,4.33-3A15,15,0,0,1,382.05,41a11.16,11.16,0,0,1,3.89,2.49,11.42,11.42,0,0,1,3,5.22,25.27,25.27,0,0,1,.85,6.78ZM364.88,49.4a1.82,1.82,0,0,1,.07.25,18.41,18.41,0,0,1,.5,3.51c0-.29,0-.58.05-.84a13.35,13.35,0,0,1,.37-2.54c0-.13.07-.26.1-.38Z"/><path class="cls-1" d="M424.63,41.8q0,8.07-3.86,11.52t-11.46,3.45h-8.37V73h-1.77V29.42h10.14q1.94,0,3.48.12a24.7,24.7,0,0,1,2.82.38,10.91,10.91,0,0,1,2.42.8,13.33,13.33,0,0,1,2.18,1.3,10.14,10.14,0,0,1,3.18,4.09A13.37,13.37,0,0,1,424.63,41.8Zm-1.77.06a12.26,12.26,0,0,0-1-4.92,8.34,8.34,0,0,0-2.59-3.51,10.72,10.72,0,0,0-1.92-1.15,13.51,13.51,0,0,0-2.12-.74,16.55,16.55,0,0,0-2.59-.41c-1-.08-2.06-.12-3.27-.12h-8.43V55.18h8.43q7,0,10.25-3T422.86,41.86Z"/><path class="cls-1" d="M401.82,73.91h-3.53V28.54h11q2,0,3.54.12a26.16,26.16,0,0,1,2.94.4,11.67,11.67,0,0,1,2.62.86,15.4,15.4,0,0,1,2.32,1.38,11.17,11.17,0,0,1,3.46,4.44,14.31,14.31,0,0,1,1.32,6.06c0,5.62-1.4,9.72-4.15,12.18s-6.79,3.67-12.05,3.67h-7.49Zm-1.77-1.76h0v0Zm1.77-17.85h7.54c4.43,0,7.68-.95,9.66-2.8s3-5.08,3-9.64a11.27,11.27,0,0,0-.93-4.58,7.53,7.53,0,0,0-2.31-3.14A9.18,9.18,0,0,0,417,33.08a12.44,12.44,0,0,0-2-.68,15,15,0,0,0-2.45-.39c-.93-.07-2-.12-3.2-.12h-7.54Zm21.46-16a13.28,13.28,0,0,1,.46,3.52,25.27,25.27,0,0,1-.25,3.71,25.86,25.86,0,0,0,.26-3.77A12.9,12.9,0,0,0,423.28,38.34Z"/><path class="cls-1" d="M481,42.62H470V73h-1.65l.06-31.95Q480,41.09,481,41Z"/><path class="cls-1" d="M470.89,73.91h-3.41l.06-33.7h.88c7.69,0,11.91,0,12.56-.06l.93,0v3.41h-11Z"/><path class="cls-1" d="M511.91,73,499.79,57.56l-9,9.76V73h-1.65V29.42h1.65V64.49h.12l20-22.69h2.19L500.85,56.26,514.09,73Z"/><path class="cls-1" d="M515.9,73.91h-4.42l-11.74-15-8.05,8.74v6.25h-3.41V28.54h3.41V62.29l18.82-21.37H515L502,56.28ZM490,65.29v1.56l.13-.13,9.59-10.42-.05-.06,8.62-10.19-17,19.32Z"/><circle class="cls-2" cx="50.36" cy="13.7" r="1.59"/><circle class="cls-3" cx="76.86" cy="15.23" r="1.59"/><circle class="cls-4" cx="63.48" cy="12.88" r="1.59"/><path class="cls-5" d="M129.93,15.2c-20.43,2-38.48,25.14-51.66,42-5.45,7-11.46,12.29-17.85,15.74l-.69.39a15.93,15.93,0,0,1-1.56.81l.77,1.75a17.45,17.45,0,0,0,1.74-.9l.65-.37c6.62-3.57,12.83-9,18.45-16.24,13-16.61,30.72-39.36,50.33-41.29Z"/><path class="cls-6" d="M111,36.1c-5.67,6.24-11.56,13.77-16,19.64l1.52,1.17c4.47-5.84,10.33-13.34,15.95-19.52Z"/><path class="cls-7" d="M86.48,67.26c-7,9.33-12.77,15.08-18.56,18.67a31.62,31.62,0,0,1-18,4.8v1.91a33.56,33.56,0,0,0,19.05-5.09c6-3.71,11.88-9.61,19.08-19.13Z"/><path class="cls-8" d="M120,21.76C106.93,29.2,89.7,51.17,84,58.39l-1.15,1.46c-.52.66-1.12,1.51-1.81,2.5-2.93,4.14-7.34,10.4-14.77,15.05l1,1.62c7.76-4.85,12.49-11.56,15.31-15.57.67-1,1.25-1.77,1.75-2.41l1.16-1.46c5.6-7.15,22.65-28.91,35.35-36.16Z"/><circle class="cls-9" cx="95.89" cy="56.07" r="1.59"/><circle class="cls-10" cx="111.74" cy="36.7" r="1.59"/><circle class="cls-11" cx="87.22" cy="67.87" r="1.59"/><circle class="cls-12" cx="74.58" cy="89.09" r="1.59"/><circle class="cls-13" cx="120.16" cy="22.79" r="1.59"/><path class="cls-14" d="M7.18,70.38l-1.69.88A48.86,48.86,0,0,0,63.82,95.18l-.59-1.82a46.94,46.94,0,0,1-56-23Z"/><path class="cls-15" d="M48.77,0A48.79,48.79,0,0,0,2.71,64.83l1.8-.63A46.87,46.87,0,0,1,85.68,19.9l1.51-1.18A48.5,48.5,0,0,0,48.77,0Z"/><path class="cls-16" d="M6.09,48.34H4.17A44.26,44.26,0,0,0,38.33,91.58l.44-1.86A42.35,42.35,0,0,1,6.09,48.34Z"/><path class="cls-17" d="M48.6,3.91A44.59,44.59,0,0,0,5.11,39.21l1.87.4A42.53,42.53,0,0,1,76.21,16l1.25-1.45A44.42,44.42,0,0,0,48.6,3.91Z"/><path class="cls-18" d="M13.77,26.71A38.46,38.46,0,0,0,61.67,82l-.74-1.76A36.54,36.54,0,0,1,15.41,27.7Z"/><path class="cls-19" d="M46.71,8.11a38.23,38.23,0,0,0-27,11.09L21,20.56a36.57,36.57,0,0,1,42-6.72l.85-1.72A38.13,38.13,0,0,0,46.71,8.11Z"/><path class="cls-20" d="M24.42,68.24l-1.32,1.4a33.15,33.15,0,0,0,37.17,5.65l-.84-1.72a31.24,31.24,0,0,1-35-5.33Z"/><path class="cls-21" d="M45.78,12.37A33.16,33.16,0,0,0,12.66,45.5a32.77,32.77,0,0,0,3.45,14.73l1.71-.85A31.23,31.23,0,0,1,50.4,14.63l.28-1.9A34.79,34.79,0,0,0,45.78,12.37Z"/><path class="cls-22" d="M19.18,44.74H17.27A29.45,29.45,0,0,0,46.68,74.16a29.15,29.15,0,0,0,17.59-5.83L63.12,66.8A27.51,27.51,0,0,1,19.18,44.74Z"/><path class="cls-23" d="M39.85,16.12A29.91,29.91,0,0,0,35,17.74a29.35,29.35,0,0,0-16.61,19l1.85.53A27.41,27.41,0,0,1,35.75,19.5,26.9,26.9,0,0,1,40.29,18Z"/><path class="cls-24" d="M31.12,23.8A26.11,26.11,0,0,0,53.86,69.35l-.45-1.86a24.56,24.56,0,0,1-5.74.68A24.19,24.19,0,0,1,32.34,25.28Z"/><circle class="cls-25" cx="63.78" cy="94.03" r="1.59"/><circle class="cls-26" cx="38.54" cy="90.66" r="1.59"/><circle class="cls-27" cx="50.16" cy="91.63" r="1.59"/><circle class="cls-28" cx="67.02" cy="78.32" r="1.59"/><circle class="cls-29" cx="61.36" cy="81.17" r="1.59"/><circle class="cls-30" cx="63.61" cy="67.41" r="1.59"/><circle class="cls-31" cx="53.42" cy="68.44" r="1.59"/><circle class="cls-32" cx="23.7" cy="68.92" r="1.59"/><circle class="cls-33" cx="16.94" cy="59.64" r="1.59"/><circle class="cls-34" cx="18.2" cy="44.86" r="1.59"/><circle class="cls-35" cx="19.37" cy="36.83" r="1.59"/><circle class="cls-36" cx="20.36" cy="20.07" r="1.59"/><circle class="cls-37" cx="14.78" cy="27.1" r="1.59"/><circle class="cls-38" cx="5.13" cy="48.19" r="1.59"/><circle class="cls-39" cx="5.85" cy="39.54" r="1.59"/><circle class="cls-40" cx="3.87" cy="64.78" r="1.59"/><circle class="cls-41" cx="6.03" cy="70.55" r="1.59"/><circle class="cls-42" cx="31.89" cy="24.43" r="1.59"/><circle class="cls-43" cx="40.19" cy="17.04" r="1.59"/><circle class="cls-44" cx="86.27" cy="19.18" r="1.59"/><path class="cls-45" d="M139.76,15.37l-.3,1.9a30.79,30.79,0,1,1-26,52.81l-1.32,1.4a32.71,32.71,0,1,0,27.63-56.11Z"/><path class="cls-46" d="M133.66,18.65a29.42,29.42,0,0,0-6.49.73l.42,1.86a28,28,0,0,1,6.07-.67,27.29,27.29,0,0,1,17.76,6.56l1.25-1.46A29.29,29.29,0,0,0,133.66,18.65Z"/><path class="cls-47" d="M157.91,31.55l-1.59,1.07a27.33,27.33,0,0,1-35.89,39.19l-.93,1.68a29.25,29.25,0,0,0,38.41-41.94Z"/><path class="cls-48" d="M133.76,23.92A25.34,25.34,0,0,0,117.29,30l1.25,1.46a23.42,23.42,0,0,1,38.64,17.8,23.77,23.77,0,0,1-.79,6.06l1.85.49a25.34,25.34,0,0,0-24.48-31.88Z"/><path class="cls-49" d="M154.33,60.46A23.44,23.44,0,0,1,129,72.2l-.38,1.88a25.75,25.75,0,0,0,5.11.51A25.35,25.35,0,0,0,156,61.38Z"/><path class="cls-50" d="M133.24,29.62a21,21,0,0,0-14.86,6.12l1.34,1.36A19.24,19.24,0,0,1,146,36.41L147.31,35A21.09,21.09,0,0,0,133.24,29.62Z"/><path class="cls-51" d="M152.47,42l-1.74.8a19.24,19.24,0,0,1-13.1,26.7,19.51,19.51,0,0,1-4.39.5v1.92A21.14,21.14,0,0,0,152.47,42Z"/><path class="cls-52" d="M119.45,34.62c-8.17,7.61-15.77,18.05-23.13,28.14-4.76,6.52-9.25,12.68-13.45,17.42a50.26,50.26,0,0,1-9.47,8.28l1.07,1.59a52.09,52.09,0,0,0,9.83-8.6c4.26-4.8,8.78-11,13.56-17.56,7.31-10,14.87-20.38,22.9-27.86Z"/><circle class="cls-53" cx="118.44" cy="30.41" r="1.59"/><circle class="cls-54" cx="113.03" cy="71" r="1.59"/><circle class="cls-55" cx="120.16" cy="72.79" r="1.59"/><circle class="cls-56" cx="128.85" cy="73.02" r="1.59"/><circle class="cls-57" cx="133.38" cy="70.73" r="1.59"/><circle class="cls-58" cx="127.7" cy="20.27" r="1.59"/><circle class="cls-59" cx="130.11" cy="16.21" r="1.59"/><circle class="cls-60" cx="139.69" cy="16.21" r="1.59"/><circle class="cls-61" cx="146.69" cy="35.75" r="1.59"/><circle class="cls-62" cx="151.56" cy="42.55" r="1.59"/><circle class="cls-63" cx="157.32" cy="32.14" r="1.59"/><circle class="cls-64" cx="151.98" cy="26.41" r="1.59"/><circle class="cls-65" cx="157.32" cy="55.75" r="1.59"/><circle class="cls-66" cx="154.95" cy="61.5" r="1.59"/><path class="cls-1" d="M457.53,73V65.26h-.12a15.52,15.52,0,0,1-5.78,6.28,16.4,16.4,0,0,1-8.72,2.27A16.59,16.59,0,0,1,436,72.42a16,16,0,0,1-5.19-3.65,15.85,15.85,0,0,1-3.24-5.22,17,17,0,0,1-1.12-6.13,16.84,16.84,0,0,1,1.15-6.19,15.87,15.87,0,0,1,3.3-5.21,16.15,16.15,0,0,1,5.19-3.63,16.54,16.54,0,0,1,6.8-1.35h16.27V73Zm0-30.47H442.91a15,15,0,0,0-10.46,4.12,13.77,13.77,0,0,0-3.18,4.69,15.41,15.41,0,0,0-1.15,6,16.2,16.2,0,0,0,.91,5.31A13.91,13.91,0,0,0,436.49,71a15.46,15.46,0,0,0,6.6,1.32A14.49,14.49,0,0,0,449,71.09a14.14,14.14,0,0,0,7.63-8Q457.71,60.43,457.53,42.57Z"/><path class="cls-1" d="M442.91,74.68a17.45,17.45,0,0,1-7.25-1.46,16.93,16.93,0,0,1-5.47-3.85,16.63,16.63,0,0,1-3.42-5.51,18.14,18.14,0,0,1,0-13,16.71,16.71,0,0,1,8.95-9.32,17.47,17.47,0,0,1,7.16-1.44h17.15V73.92h-3.41V68.14a16.28,16.28,0,0,1-4.56,4.15A17.32,17.32,0,0,1,442.91,74.68Zm0-31.23a14.36,14.36,0,0,0-5.42,1,14.18,14.18,0,0,0-4.43,2.86,13,13,0,0,0-3,4.39,14.62,14.62,0,0,0-1.08,5.7,15.45,15.45,0,0,0,.86,5,13.29,13.29,0,0,0,2.61,4.48,13.09,13.09,0,0,0,4.39,3.23,14.55,14.55,0,0,0,6.23,1.24,13.81,13.81,0,0,0,5.57-1.1,13.48,13.48,0,0,0,4.34-3,13.33,13.33,0,0,0,2.82-4.45c.45-1.14.95-5.44.83-19.37Zm14.16,20.93,1.23.05V56.16c-.19,4.92-.54,6.54-.84,7.3C457.34,63.77,457.21,64.08,457.07,64.38Z"/></svg>